<svg width="81" height="81" viewBox="0 0 81 81" fill="none" xmlns="http://www.w3.org/2000/svg">
<g clip-path="url(#clip0_134_5127)">
<path d="M44.7327 30.5332L22.7084 17.9017L54.1254 0.0878906L75.8258 12.7195L44.7327 30.5332Z" fill="#80DAE0"/>
<path d="M44.7327 63.8933L75.8258 46.0796V12.7192L44.7327 30.533V63.8933Z" fill="#0C67AD"/>
<path d="M4.24683 62.2363L25.9472 74.5819V64.8653L4.24683 52.5576V62.2363Z" fill="#FFB300"/>
<path d="M44.7326 56.7682V39.5497L35.9876 44.4605L33.3965 56.7682L25.9471 64.8654V74.582L44.7326 63.8937L75.8257 46.0799V39.2783L44.7326 56.7682Z" fill="#E64F00"/>
<path d="M11.4217 44.1177L33.3966 56.7682L25.9472 64.8654L4.24683 52.5577L11.4217 44.1177Z" fill="#FFEA17"/>
<path d="M13.9843 32.0952L35.9877 44.4605L33.3966 56.7682L11.4216 44.1176L13.9843 32.0952Z" fill="#FFB300"/>
<path d="M22.7083 26.9707L13.9843 32.0953L35.9877 44.4606L44.7326 39.5498L22.7083 26.9707Z" fill="#FFEA17"/>
<path d="M22.7084 17.9019V26.9707L44.7327 39.5498V30.5334L22.7084 17.9019Z" fill="#4899D6"/>
<path d="M15.259 35.0679L13.6395 42.8412L31.7772 53.2055L33.3966 45.4322L15.259 35.0679Z" fill="#80DAE0"/>
<path d="M35.6638 55.4724L42.7893 51.2619V42.8408L37.6071 45.7558L35.6638 55.4724Z" fill="#4899D6"/>
<path d="M44.4088 64.2176C44.2645 64.0803 44.107 63.9645 43.9387 63.8646L41.8177 62.2742C41.1699 61.9504 40.4943 61.6265 39.7516 61.6265C36.168 61.6265 31.8582 67.4406 31.8582 72.1642C31.8582 73.7994 32.3883 74.9545 33.2581 75.5245L36.1389 77.414L36.1402 77.4121C36.5501 77.6804 37.0321 77.8208 37.5654 77.8208C41.1775 77.8208 45.4614 71.9674 45.4614 67.2825C45.4614 65.8775 45.0705 64.8476 44.4088 64.2176Z" fill="#4899D6"/>
<path d="M42.6349 63.5146C43.3333 63.5146 43.9393 63.7702 44.4087 64.2175C45.0704 64.8475 45.4613 65.8774 45.4613 67.2824C45.4613 71.968 41.1774 77.8207 37.5653 77.8207C35.9079 77.8207 34.7389 76.4878 34.7389 74.0536C34.7389 69.3686 39.0228 63.5146 42.6349 63.5146Z" fill="#0C67AD"/>
<path d="M41.7847 66.8887C42.6894 66.8887 43.3049 67.6231 43.3049 68.9149C43.3049 71.4092 41.0193 74.5816 39.0595 74.5816C39.0557 74.5816 39.0475 74.5816 39.0349 74.5816C38.8324 74.5816 37.5394 74.5221 37.5394 72.5554C37.5394 70.0643 39.8224 66.8887 41.7847 66.8887Z" fill="#FFB300"/>
<path d="M74.8541 47.3753C74.7098 47.238 74.5523 47.1222 74.3841 47.0223L72.263 45.432C71.6152 45.1081 70.9396 44.7842 70.1969 44.7842C66.6133 44.7842 62.3035 50.5983 62.3035 55.3219C62.3035 56.9571 62.8336 58.1122 63.7034 58.6822L66.5842 60.5718L66.5855 60.5699C66.9954 60.8381 67.4774 60.9785 68.0107 60.9785C71.6228 60.9785 75.9067 55.1251 75.9067 50.4402C75.9067 49.0352 75.5158 48.0053 74.8541 47.3753Z" fill="#4899D6"/>
<path d="M73.0803 46.6724C73.7787 46.6724 74.3847 46.9279 74.8541 47.3752C75.5158 48.0052 75.9067 49.0351 75.9067 50.4401C75.9067 55.1257 71.6228 60.9784 68.0107 60.9784C66.3534 60.9784 65.1843 59.6455 65.1843 57.2113C65.1843 52.5264 69.4682 46.6724 73.0803 46.6724Z" fill="#0C67AD"/>
<path d="M72.2301 50.0469C73.1347 50.0469 73.7502 50.7813 73.7502 52.0731C73.7502 54.5674 71.4646 57.7398 69.5049 57.7398C69.5011 57.7398 69.4928 57.7398 69.4802 57.7398C69.2778 57.7398 67.9847 57.6804 67.9847 55.7136C67.9847 53.2225 70.2678 50.0469 72.2301 50.0469Z" fill="#FFB300"/>
<path d="M7.80006 56.9788C7.59953 56.8675 7.35472 56.8706 7.15735 56.987C6.95935 57.1034 6.83789 57.316 6.83789 57.5456V58.9209C6.83789 59.3909 7.09282 59.8248 7.50401 60.0532L8.79007 60.768C8.99123 60.8794 9.23541 60.8762 9.43341 60.7598C9.63141 60.6434 9.75287 60.4309 9.75287 60.2012V58.826C9.75287 58.356 9.49794 57.922 9.08612 57.6936L7.80006 56.9788Z" fill="#FFFCD4"/>
<path d="M20.7555 64.558C20.555 64.446 20.3102 64.4492 20.1128 64.5656C19.9148 64.682 19.7933 64.8945 19.7933 65.1241V66.5C19.7933 66.97 20.0483 67.404 20.4595 67.6324L21.7455 68.3466C21.9467 68.4585 22.1909 68.4554 22.3889 68.339C22.5869 68.2226 22.7083 68.01 22.7083 67.7804V66.4051C22.7083 65.9345 22.4534 65.5012 22.0416 65.2722L20.7555 64.558Z" fill="#FFFCD4"/>
<path d="M47.3237 32.8005L73.5585 18.0093V19.9526L47.3237 34.7438V32.8005Z" fill="#4899D6"/>
<path d="M47.3237 37.3347L73.5585 22.5435V24.4868L47.3237 39.278V37.3347Z" fill="#4899D6"/>
<path d="M47.3237 41.8694L73.5585 27.0781V29.0214L47.3237 43.8127V41.8694Z" fill="#4899D6"/>
<path d="M47.3237 46.4035L73.5585 31.6123V33.5556L47.3237 48.3469V46.4035Z" fill="#4899D6"/>
<path d="M47.3237 50.9382L73.5585 36.147V38.0903L47.3237 52.8815V50.9382Z" fill="#4899D6"/>
<path d="M58.6598 6.56543L65.1375 10.4521L49.267 19.5209L54.1253 22.4359L36.9594 23.0836L37.931 12.3954L43.1132 15.6343L58.6598 6.56543Z" fill="#FFFACC"/>
<path d="M60.603 80.0879L73.5585 72.6385V57.7397L60.603 65.1891V80.0879Z" fill="#E64F00"/>
<path d="M60.6031 65.1892L48.2954 58.0637L61.2509 50.6143L73.5586 57.7398L60.6031 65.1892Z" fill="#FFEA17"/>
<path d="M48.2954 58.0635V72.9623L60.6031 80.0878V65.189L48.2954 58.0635Z" fill="#FFB300"/>
<path d="M48.2954 58.0635L54.4493 69.0756L60.6031 65.189L48.2954 58.0635Z" fill="#E64F00"/>
<path d="M48.2954 72.9623L54.4493 69.0757L60.6031 80.0878L48.2954 72.9623Z" fill="#E64F00"/>
</g>
<defs>
<clipPath id="clip0_134_5127">
<rect width="80" height="80" fill="white" transform="translate(0.0362549 0.0878906)"/>
</clipPath>
</defs>
</svg>
