<svg width="81" height="81" viewBox="0 0 81 81" fill="none" xmlns="http://www.w3.org/2000/svg">
<path d="M40.0362 38.5022V75.9963L14.467 65.7277C13.1482 65.1981 12.2839 63.9197 12.2839 62.4985V27.3569L40.0362 38.5022Z" fill="#F2A916"/>
<path d="M40.0363 38.5022V75.9963L65.6055 65.7277C66.9243 65.1981 67.7885 63.9197 67.7885 62.4985V27.3569L40.0363 38.5022Z" fill="#FFC536"/>
<path d="M56.4667 57.593L61.9521 55.5131C63.0905 55.0814 64.3089 55.9224 64.3089 57.14V61.2969C64.3089 62.0198 63.8619 62.6675 63.1859 62.9238L57.7005 65.0038C56.562 65.4355 55.3436 64.5944 55.3436 63.3769V59.22C55.3436 58.497 55.7907 57.8494 56.4667 57.593Z" fill="#EDEDED"/>
<path d="M30.9598 48.0271L40.0363 38.5022L12.284 27.3569L5.1219 34.8729C3.42465 36.654 4.06125 39.5859 6.34431 40.5028L27.1437 48.8557C28.4654 49.3865 29.9772 49.0583 30.9598 48.0271Z" fill="#FFC536"/>
<path d="M49.1127 48.0271L40.0363 38.5022L67.7885 27.3569L74.9506 34.8729C76.6479 36.654 76.0113 39.5859 73.7282 40.5028L52.9289 48.8557C51.6071 49.3865 50.0953 49.0583 49.1127 48.0271Z" fill="#F2A916"/>
<path d="M67.7885 27.3646L40.0362 38.5001L12.2839 27.3646L40.0362 16.2114L67.7885 27.3646Z" fill="#2C3642"/>
<path d="M51.0705 16.2089C51.0705 22.3022 46.1319 27.2455 40.0339 27.2455C33.9407 27.2455 29.0022 22.3022 29.0022 16.2089C29.0022 10.1158 33.9407 5.17725 40.0339 5.17725C46.1319 5.17725 51.0705 10.1158 51.0705 16.2089Z" fill="#0EBE7E"/>
<path d="M36.9967 20.3677L34.7632 18.1345C34.3727 17.7443 34.3727 17.1114 34.7632 16.721C35.1531 16.3305 35.7862 16.3305 36.1767 16.721L37.7035 18.2474L43.896 12.0546C44.2858 11.6641 44.919 11.6641 45.3095 12.0546C45.6999 12.4447 45.6999 13.0776 45.3095 13.4681L38.4102 20.3677C38.0211 20.7574 37.388 20.759 36.9967 20.3677Z" fill="white"/>
</svg>
