<svg width="81" height="81" viewBox="0 0 81 81" fill="none" xmlns="http://www.w3.org/2000/svg">
<path d="M36.8421 37.3478V78.235L9.36399 69.2167C7.67244 68.657 6.51538 67.0772 6.51538 65.286V27.3965L36.8421 37.3478Z" fill="#FABB53"/>
<path d="M36.8421 37.3478L34.0807 50.1598C33.5583 52.5733 31.0705 53.9912 28.7318 53.2326L6.32891 45.8684C4.31393 45.2091 3.11952 43.1443 3.56746 41.0671L6.51538 27.3965L36.8421 37.3478Z" fill="#F99944"/>
<path d="M74.483 27.3965V65.0995C74.483 66.9776 73.2142 68.6196 71.3981 69.1046L36.8422 78.235V37.3478L74.483 27.3965Z" fill="#F99944"/>
<path d="M75.3661 45.794L45.7363 53.6304C43.5595 54.2026 41.3204 52.9337 40.6984 50.7696L36.8422 37.3478L74.483 27.3965L78.2894 40.644C78.9363 42.8707 77.6176 45.1969 75.3661 45.794Z" fill="#FABB53"/>
<path d="M74.4829 27.3961L36.8421 37.3474L6.51538 27.3961L38.0736 16.9346C39.7032 16.3873 41.4694 16.3998 43.099 16.9346L74.4829 27.3961Z" fill="#D8642A"/>
<path d="M40.4991 33.5879C48.9627 33.5879 55.8239 26.7268 55.8239 18.2632C55.8239 9.79958 48.9627 2.93848 40.4991 2.93848C32.0355 2.93848 25.1744 9.79958 25.1744 18.2632C25.1744 26.7268 32.0355 33.5879 40.4991 33.5879Z" fill="#E9293A"/>
<path d="M33.668 9.47696C33.193 9.47696 32.7265 9.24718 32.4427 8.82152C31.9929 8.14597 32.1756 7.23259 32.8517 6.78222C33.2785 6.49787 33.7255 6.23478 34.1804 5.99983C34.8996 5.62758 35.7889 5.90849 36.1617 6.63114C36.5345 7.35265 36.2519 8.2396 35.5304 8.61242C35.1691 8.79969 34.8192 9.00591 34.482 9.23052C34.2316 9.39711 33.9484 9.47696 33.668 9.47696Z" fill="#FE6559"/>
<path d="M28.4791 17.0151C28.3722 17.0151 28.2637 17.0031 28.1545 16.9784C27.3624 16.8003 26.8649 16.0133 27.0435 15.2206C27.4313 13.4989 28.1379 11.8876 29.1443 10.4314C29.6062 9.76272 30.5218 9.59556 31.1899 10.0574C31.858 10.5187 32.0257 11.4349 31.5639 12.103C30.7729 13.2479 30.2174 14.5146 29.9123 15.8674C29.7584 16.5504 29.1518 17.0151 28.4791 17.0151Z" fill="#FE6559"/>
<path d="M40.5593 2.94189V33.5846C48.9949 33.5521 55.8238 26.7064 55.8238 18.2633C55.8238 9.82015 48.9949 2.97414 40.5593 2.94189Z" fill="#D42032"/>
<path d="M46.5845 20.349C47.7227 21.4731 47.7083 23.2856 46.5845 24.4097C46.0223 24.9715 45.2776 25.2525 44.547 25.2525C43.8163 25.2525 43.0861 24.9715 42.5238 24.4097L40.5007 22.3865L40.4444 22.3303L38.3651 24.4097C37.241 25.5334 35.4144 25.5334 34.2907 24.4097C33.7284 23.8474 33.4475 23.1168 33.4475 22.3721C33.4475 21.6278 33.7284 20.8971 34.2907 20.3349L36.37 18.2696L34.2907 16.1902C33.1666 15.0665 33.1666 13.2395 34.2907 12.1158C34.8525 11.5539 35.5832 11.2726 36.3279 11.2726C37.0726 11.2726 37.8032 11.5539 38.3651 12.1158L40.4444 14.1952L42.5238 12.1158C43.6479 10.9776 45.4604 10.9921 46.5845 12.1158C47.7083 13.2395 47.7227 15.0521 46.5845 16.1758L44.5051 18.2696L46.5845 20.349Z" fill="white"/>
<path d="M46.5846 20.349C47.7227 21.4731 47.7083 23.2856 46.5846 24.4097C46.0223 24.9715 45.2776 25.2525 44.547 25.2525C43.8164 25.2525 43.0861 24.9715 42.5239 24.4097L40.5007 22.3865V14.1389L42.5239 12.1158C43.6479 10.9776 45.4605 10.9921 46.5846 12.1158C47.7083 13.2395 47.7227 15.0521 46.5846 16.1758L44.5052 18.2696L46.5846 20.349Z" fill="#E8EDF2"/>
<path d="M65.7068 66.2222C65.7188 66.3047 65.7303 66.3989 65.7303 66.481C65.7303 67.187 65.2363 67.7988 64.5188 67.928L60.3187 68.6811C59.5188 68.8222 58.7539 68.2928 58.6129 67.4929C58.6011 67.4105 58.5894 67.3163 58.5894 67.2341C58.5894 66.5281 59.0834 65.9163 59.8012 65.7871L64.0012 65.034C64.8012 64.8929 65.5657 65.4223 65.7068 66.2222Z" fill="#FABB53"/>
<path d="M70.6481 60.1282C70.6481 60.8342 70.1541 61.4457 69.4363 61.587L59.3774 63.387C58.5775 63.5281 57.8127 62.9987 57.6716 62.1988C57.6598 62.1046 57.6481 62.0107 57.6481 61.9282C57.6481 61.234 58.1539 60.6222 58.8599 60.493L68.9188 58.6811C69.7187 58.5398 70.4833 59.081 70.6246 59.8694C70.6364 59.9518 70.6481 60.0457 70.6481 60.1282Z" fill="#FABB53"/>
</svg>
