<svg width="19" height="18" viewBox="0 0 19 18" fill="none" xmlns="http://www.w3.org/2000/svg">
<path d="M4.86575 3.68237C7.78925 1.60862 11.9675 1.77812 14.6705 4.08437C17.4207 6.42962 17.7965 10.2629 15.5345 13.0071C13.403 15.5924 9.56075 16.4444 6.36125 15.1109L6.18725 15.0351L2.906 15.7334L2.84975 15.7431L2.76725 15.7499L2.6825 15.7469L2.6495 15.7431L2.567 15.7281L2.48825 15.7026L2.41325 15.6696L2.35625 15.6381L2.27525 15.5804L2.2145 15.5249L2.15975 15.4626L2.12 15.4064L2.07125 15.3201L2.03975 15.2406L2.0165 15.1559L2.00675 15.0996L2 15.0171L2.003 14.9324L2.00675 14.8994L2.02175 14.8169L2.03825 14.7629L2.90075 12.1746L2.88425 12.1476C1.22675 9.33737 1.9775 5.85362 4.6925 3.80912L4.865 3.68312L4.86575 3.68237Z" fill="#D9D9D9"/>
</svg>
