<svg width="81" height="81" viewBox="0 0 81 81" fill="none" xmlns="http://www.w3.org/2000/svg">
<g clip-path="url(#clip0_201_2173)">
<path d="M61.8435 38.107L72.0105 32.2104C72.5372 31.9207 72.8095 31.5116 72.8095 31.1196L72.9793 45.9611C72.9793 46.3701 72.7074 46.7791 72.1633 47.1029L61.9966 52.9826C61.4405 53.3012 60.707 53.4461 59.9786 53.4337L59.9084 38.5661C60.6041 38.5647 61.3018 38.4124 61.8435 38.107Z" fill="white"/>
<path d="M47.8514 32.2103L57.9674 38.1069C58.5053 38.4151 59.2059 38.5674 59.9082 38.5661L59.9783 53.4337C59.3047 53.4222 58.6348 53.2774 58.1201 52.9825L48.0045 47.0858C47.4774 46.7791 47.2055 46.3701 47.2055 45.9781L47.0524 31.1025C47.0524 31.4946 47.3247 31.9036 47.8514 32.2103Z" fill="#1C966A"/>
<path d="M47.8608 29.9621C46.786 30.5841 46.7804 31.5893 47.8481 32.2112L57.9635 38.104C59.0311 38.7259 60.7622 38.7259 61.8369 38.1039L72.0076 32.2176C73.0823 31.5956 73.0879 30.5905 72.0203 29.9686L61.9049 24.0759C60.8372 23.4539 59.1061 23.4539 58.0314 24.0759L47.8608 29.9621Z" fill="white"/>
<path d="M60.0641 54.0054C60.0318 54.0054 60.0005 54.0054 59.9681 54.0049C59.6579 53.9993 59.4079 53.7471 59.4068 53.4362L59.3364 38.5685C59.3353 38.4167 59.3956 38.2705 59.5027 38.1628C59.6099 38.0551 59.755 37.9943 59.9068 37.9943C60.5351 37.9932 61.1222 37.857 61.5597 37.6104L71.7237 31.7158C72.1065 31.5054 72.2382 31.2711 72.2382 31.1193C72.2382 30.8051 72.4916 30.5495 72.8063 30.5479H72.8097C73.1222 30.5479 73.3777 30.7995 73.3811 31.1126L73.5507 45.9541C73.5507 46.5931 73.1623 47.1729 72.4559 47.5936L62.2818 53.477C61.6835 53.8196 60.9001 54.0054 60.0641 54.0054ZM60.4815 39.1053L60.5463 52.8358C60.9938 52.785 61.4012 52.6645 61.7126 52.4865L71.8777 46.6081C72.2126 46.4083 72.4079 46.1712 72.4079 45.9608L72.2561 32.7281L62.13 38.6009C62.1277 38.602 62.1266 38.6031 62.1244 38.6042C61.6612 38.8659 61.092 39.0384 60.4815 39.1053Z" fill="#006C5E"/>
<path d="M59.9782 54.005C59.9749 54.005 59.9715 54.005 59.9682 54.005C59.1613 53.9911 58.4046 53.8041 57.8365 53.4788L47.7171 47.5798C47.0296 47.1797 46.6345 46.596 46.6345 45.9782L46.4816 31.1283C46.4816 31.1194 46.4816 31.111 46.4816 31.1027C46.4816 30.7885 46.736 30.5329 47.0496 30.5312H47.053C47.3666 30.5312 47.6211 30.7835 47.6244 31.0965V31.1099C47.6289 31.2617 47.7662 31.4989 48.14 31.7165L58.255 37.6127C58.6769 37.8549 59.2762 37.9944 59.8967 37.9944H59.9068C60.2215 37.9944 60.4782 38.2483 60.4793 38.5631L60.5496 53.4308C60.5508 53.5848 60.4894 53.7321 60.38 53.8404C60.2729 53.9459 60.1289 54.005 59.9782 54.005ZM47.6412 32.7489L47.7773 45.9721C47.7773 46.13 47.9124 46.3711 48.2918 46.5921L58.4079 52.4888C58.6769 52.6434 59.0195 52.7539 59.4034 52.8136L59.3387 39.1083C58.7215 39.0424 58.1467 38.8689 57.6825 38.6021L47.6412 32.7489Z" fill="#006C5E"/>
<path d="M59.8979 39.1412C59.0966 39.1412 58.2975 38.9598 57.6758 38.5977L47.5597 32.7048C46.8622 32.2985 46.4794 31.7249 46.4794 31.0898C46.4805 30.4615 46.88 29.87 47.5742 29.4676L57.7461 23.5815C58.9972 22.8555 60.9504 22.8583 62.1925 23.582L72.3086 29.4749C73.0062 29.8811 73.389 30.4548 73.389 31.0898C73.3878 31.7182 72.9883 32.3097 72.2941 32.7121L62.1222 38.5982C61.4972 38.9604 60.697 39.1412 59.8979 39.1412ZM48.1468 30.4565C47.8142 30.6496 47.6233 30.8811 47.6222 31.0915C47.6222 31.2991 47.8097 31.5273 48.1356 31.7171L58.2517 37.6099C59.1401 38.1295 60.6524 38.1289 61.5497 37.6094L71.7216 31.7232C72.0541 31.5301 72.245 31.2985 72.2461 31.0882C72.2461 30.8806 72.0586 30.6523 71.7327 30.4626L61.6166 24.5698C60.7271 24.0502 59.2149 24.0508 58.3187 24.5703L48.1468 30.4565Z" fill="#006C5E"/>
<path d="M72.6789 4.97254C70.5893 3.75747 67.6882 3.92738 64.4945 5.77571C58.1381 9.45686 53.0036 18.3741 53.024 25.6952C53.0343 29.3352 54.3128 31.894 56.382 33.0988L53.2077 31.2503C51.1436 30.0455 49.8651 27.4867 49.8548 23.8519C49.8291 16.5307 54.9636 7.60838 61.3202 3.93235C64.519 2.0789 67.4148 1.90899 69.5097 3.12918L72.6789 4.97254Z" fill="white"/>
<path d="M72.6491 23.7146C77.1371 15.9413 77.1303 7.53536 72.634 4.9393C68.1376 2.34325 60.8543 6.5402 56.3663 14.3135C51.8783 22.0867 51.885 30.4927 56.3814 33.0888C60.8777 35.6848 68.161 31.4879 72.6491 23.7146Z" fill="white"/>
<path d="M76.0346 12.3722C76.0593 19.6963 70.9228 28.6178 64.5677 32.2922C58.2126 35.9716 53.0417 33.0192 53.0219 25.6951C53.017 24.1719 53.239 22.5745 53.6486 20.9722C54.7489 21.5063 55.9824 21.808 57.2899 21.808C61.8984 21.808 65.6285 18.0693 65.6285 13.4503C65.6285 10.8737 64.4641 8.56914 62.6336 7.03608C63.2405 6.56626 63.8622 6.14592 64.4937 5.77993C70.8439 2.10058 76.0148 5.05297 76.0346 12.3722Z" fill="#E8EBFE"/>
<path d="M64.5025 9.97477C68.8395 7.46394 72.3784 9.48611 72.3925 14.4833C72.4067 19.4805 68.8908 25.5868 64.5537 28.0977C60.2199 30.6066 56.6812 28.5844 56.667 23.5872C56.6529 18.59 60.1687 12.4837 64.5025 9.97477Z" fill="#7FEECB"/>
<path d="M72.3933 14.4832C72.4081 19.4829 68.89 25.5856 64.5529 28.0979C60.2207 30.6052 56.683 28.5825 56.6682 23.5876C56.6682 23.3255 56.6781 23.0535 56.6978 22.7865C57.3985 22.9991 58.1435 23.1129 58.9182 23.1129C63.1861 23.1129 66.645 19.6462 66.645 15.3733C66.645 13.2814 65.821 11.3824 64.4691 9.99275C64.4789 9.9878 64.4938 9.9779 64.5036 9.97295C68.8407 7.46563 72.3785 9.48831 72.3933 14.4832Z" fill="#47CEA3"/>
<path d="M56.3821 33.6702C56.2839 33.6702 56.1846 33.645 56.0942 33.5926L52.9201 31.7444C50.5864 30.3822 49.294 27.5798 49.2828 23.8537C49.256 16.3588 54.5284 7.20028 61.0339 3.43801C64.3118 1.53734 67.4268 1.25553 69.7973 2.63555L72.9659 4.47874C73.2393 4.63723 73.3319 4.98711 73.1734 5.25999C73.0138 5.53343 72.6623 5.62328 72.3922 5.46647C70.3888 4.30241 67.688 4.58812 64.7806 6.27004C58.5942 9.85319 53.5752 18.5664 53.5953 25.6936C53.6042 28.9977 54.6935 31.4508 56.6634 32.601L56.6701 32.6049C56.9424 32.7639 57.035 33.1138 56.8755 33.3861C56.7694 33.5686 56.5786 33.6702 56.3821 33.6702ZM66.4781 2.9168C64.996 2.9168 63.3375 3.4235 61.6065 4.42685C55.4156 8.00665 50.4011 16.7198 50.4257 23.8498C50.4357 27.1545 51.5261 29.6077 53.496 30.7572L53.5127 30.7667C52.823 29.3878 52.458 27.6718 52.4525 25.6969C52.4324 18.2053 57.7058 9.04683 64.208 5.2812C65.9592 4.26781 67.6634 3.71424 69.2326 3.62941L69.2225 3.62328C68.4112 3.15118 67.4859 2.9168 66.4781 2.9168Z" fill="#006C5E"/>
<path d="M59.4034 34.4527C58.2114 34.4527 57.1043 34.1731 56.1232 33.6095C53.7661 32.2546 52.4625 29.4454 52.4514 25.6987C52.4313 18.2054 57.7036 9.04696 64.2058 5.28301C67.4703 3.39406 70.5708 3.10333 72.9357 4.4627C75.2929 5.81761 76.5976 8.62676 76.6076 12.3723C76.6288 19.8645 71.3565 29.023 64.8543 32.788C62.9424 33.8941 61.0875 34.4527 59.4034 34.4527ZM69.6511 4.76292C68.169 4.76292 66.5105 5.26962 64.7795 6.27185C58.592 9.85388 53.5741 18.5671 53.5942 25.6954C53.6043 29.0168 54.7047 31.4755 56.6935 32.6184C58.6913 33.7674 61.3855 33.475 64.2817 31.7992C70.4681 28.2166 75.4859 19.5034 75.4647 12.3756C75.4558 9.05534 74.3554 6.59663 72.3665 5.45377C71.563 4.99228 70.6467 4.76292 69.6511 4.76292Z" fill="#006C5E"/>
<path d="M61.034 29.7508C60.1869 29.7508 59.3989 29.551 58.6992 29.1487C57.0273 28.1883 56.1032 26.214 56.0954 23.589C56.082 18.4098 59.7248 12.0806 64.2159 9.48015C66.5005 8.15649 68.6824 7.95783 70.3621 8.92267C72.0329 9.88305 72.957 11.8574 72.9637 14.4818C72.9782 19.6604 69.3342 25.9902 64.8409 28.5923C63.5106 29.3624 62.2148 29.7508 61.034 29.7508ZM64.7896 10.469C60.6121 12.887 57.2248 18.7709 57.2382 23.5856C57.2449 25.7854 57.9659 27.4093 59.2684 28.1582C60.5786 28.9093 62.3532 28.7117 64.2672 27.6035C68.4469 25.1838 71.8353 19.2988 71.8208 14.4852C71.8152 12.286 71.0943 10.6621 69.7918 9.91375C68.4849 9.16263 66.707 9.35962 64.7896 10.469Z" fill="#006C5E"/>
<path d="M67.0426 18.3244C67.2756 18.526 67.3961 18.8975 67.3976 19.4427C67.3989 19.8904 67.2965 20.3547 67.0874 20.8409C66.8783 21.3235 66.5843 21.7829 66.1992 22.2226C65.814 22.6624 65.369 23.0427 64.8642 23.3673L64.8667 24.2663C64.867 24.3783 64.8359 24.4867 64.7734 24.5952C64.714 24.6982 64.6294 24.7833 64.5291 24.8414C64.4318 24.8976 64.3533 24.9105 64.2904 24.8782C64.2275 24.8494 64.1958 24.7737 64.1955 24.6546L64.193 23.7555C63.4024 24.1549 62.6617 24.3845 61.9708 24.4478C61.8828 24.4553 61.8105 24.4284 61.7507 24.3654C61.6939 24.3006 61.6623 24.214 61.662 24.1056C61.6616 23.9612 61.7051 23.8131 61.7895 23.6594C61.8707 23.5039 61.9804 23.3899 62.1121 23.3137C62.1842 23.2719 62.2564 23.2447 62.3224 23.2427C62.916 23.2031 63.5374 23.0136 64.1899 22.6688L64.1817 19.7587C63.6826 19.8954 63.265 19.9706 62.9226 19.9915C62.5802 20.0123 62.2973 19.9264 62.0674 19.7339C61.8406 19.5396 61.7266 19.1933 61.7252 18.695C61.7239 18.2546 61.8169 17.7957 62.0009 17.3168C62.188 16.8397 62.4663 16.3677 62.8357 15.9117C63.2019 15.454 63.6499 15.0466 64.1673 14.6967L64.1648 13.8085C64.1645 13.7001 64.1956 13.5881 64.2581 13.476C64.3206 13.3639 64.399 13.2825 64.4962 13.2262C64.5902 13.1718 64.6719 13.1607 64.738 13.1985C64.804 13.2362 64.8357 13.3119 64.836 13.4202L64.8385 14.294C65.5568 13.9147 66.1938 13.6836 66.7528 13.6062C66.96 13.5695 67.0609 13.6811 67.0616 13.9339C67.062 14.0711 67.0215 14.2175 66.9435 14.3711C66.8622 14.5266 66.7557 14.6424 66.624 14.7186C66.5801 14.744 66.5205 14.7641 66.4482 14.7697C65.949 14.8559 65.4123 15.0542 64.8415 15.3591L64.85 18.3703C65.3773 18.21 65.8168 18.1112 66.1654 18.0796C66.5141 18.0443 66.8064 18.1283 67.0426 18.3244ZM64.8611 22.2805C65.8958 21.5988 66.4088 20.8175 66.4063 19.9401C66.4054 19.6116 66.2761 19.4332 66.0153 19.3996C65.7544 19.3697 65.3682 19.4231 64.8534 19.5582L64.8611 22.2805ZM64.1783 18.5672L64.1704 15.7834C63.7315 16.106 63.3807 16.4645 63.1179 16.8551C62.8551 17.2494 62.7243 17.6397 62.7254 18.0261C62.7265 18.3979 62.8496 18.6161 63.0948 18.6767C63.34 18.7374 63.7012 18.7021 64.1783 18.5672Z" fill="white"/>
<path d="M40.3362 33.9795L50.5032 28.0829C51.0299 27.7932 51.3022 27.3841 51.3022 26.9922L51.472 58.4085C51.472 58.8175 51.2001 59.2265 50.6559 59.5504L40.4893 65.43C39.9331 65.7486 39.1997 65.8935 38.4713 65.8811L38.4011 34.4387C39.0968 34.4373 39.7945 34.2849 40.3362 33.9795Z" fill="white"/>
<path d="M51.4674 58.409C51.4674 58.8111 51.2004 59.2299 50.6503 59.5482L40.4947 65.4285C39.9276 65.7468 39.194 65.8975 38.477 65.8807L38.4603 57.9734C43.0962 57.2028 46.5979 52.9811 46.5979 47.9218C46.5979 42.8122 43.0628 38.5905 38.4102 37.8533L38.3936 34.4358C39.0938 34.4358 39.7945 34.285 40.3278 33.9834L50.5001 28.0864C51.0338 27.7849 51.3005 27.3828 51.3005 26.9976L51.4674 58.409Z" fill="#E9FFF8"/>
<path d="M26.344 28.0829L36.46 33.9795C36.998 34.2877 37.6986 34.44 38.4009 34.4386L38.471 65.8811C37.7974 65.8696 37.1275 65.7248 36.6128 65.43L26.4972 59.5333C25.9701 59.2265 25.6982 58.8175 25.6982 58.4256L25.545 26.9751C25.545 27.3671 25.8173 27.7761 26.344 28.0829Z" fill="#1C966A"/>
<path d="M26.3535 25.8347C25.2787 26.4567 25.2731 27.4618 26.3408 28.0838L36.4562 33.9765C37.5238 34.5984 39.2549 34.5985 40.3296 33.9765L50.5002 28.0902C51.575 27.4682 51.5806 26.4631 50.513 25.8411L40.3975 19.9484C39.3299 19.3265 37.5988 19.3264 36.5241 19.9484L26.3535 25.8347Z" fill="white"/>
<path d="M38.5575 66.4528C38.5252 66.4528 38.4939 66.4528 38.4615 66.4522C38.1502 66.4466 37.9013 66.1933 37.9002 65.8819L37.8298 34.4394C37.8287 34.1241 38.0843 33.8674 38.4002 33.8668C39.0274 33.8652 39.6144 33.729 40.0531 33.4829L50.216 27.5878C50.533 27.4137 50.7305 27.1821 50.7305 26.9918C50.7305 26.6771 50.985 26.4215 51.3008 26.4204C51.6156 26.4204 51.8711 26.6743 51.8734 26.9885L52.043 58.4048C52.043 59.0415 51.6535 59.6213 50.9481 60.0409L40.7752 65.9238C40.1781 66.2664 39.3935 66.4528 38.5575 66.4528ZM38.9738 34.9779L39.0419 65.2826C39.4883 65.2318 39.8957 65.1113 40.2048 64.9338L50.37 59.0555C50.7048 58.8562 50.9002 58.6191 50.9002 58.4081L50.7394 28.6057L40.6234 34.4734C40.6211 34.4745 40.6189 34.4757 40.6167 34.4768C40.1524 34.7385 39.5832 34.9104 38.9738 34.9779Z" fill="#006C5E"/>
<path d="M38.4715 66.4524C38.4682 66.4524 38.4648 66.4524 38.4615 66.4524C37.6546 66.4385 36.8967 66.251 36.3287 65.9251L26.2092 60.0266C25.5217 59.6265 25.1267 59.0428 25.1267 58.4251L24.9738 26.9848C24.9738 26.9826 24.9738 26.9809 24.9738 26.9787C24.9738 26.9775 24.9738 26.9759 24.9738 26.9747C24.9738 26.6595 25.2282 26.4039 25.5441 26.4033C25.8588 26.4033 26.1155 26.6572 26.1166 26.972V26.9775C26.1188 27.1299 26.2539 27.3693 26.6311 27.5886L36.7483 33.4854C37.1702 33.7275 37.7717 33.867 38.3934 33.867H38.4001C38.7148 33.867 38.9715 34.1221 38.9726 34.4374L39.043 65.8799C39.043 66.0333 38.9816 66.1807 38.8722 66.2884C38.765 66.3933 38.6211 66.4524 38.4715 66.4524ZM26.1244 28.6159L26.2695 58.4223C26.2695 58.5769 26.4046 58.8179 26.784 59.0389L36.9012 64.9357C37.1713 65.0908 37.5139 65.2019 37.899 65.261L37.8309 34.9803C37.2137 34.9145 36.64 34.7409 36.1769 34.4753L26.1244 28.6159Z" fill="#006C5E"/>
<path d="M38.3901 35.0134C37.5899 35.0134 36.7908 34.8326 36.168 34.4704L26.053 28.5776C25.3555 28.1708 24.9716 27.5971 24.9716 26.9621C24.9727 26.3331 25.3722 25.7422 26.0675 25.3404L36.2383 19.4537C37.4883 18.7305 39.4403 18.7299 40.6858 19.4542L50.8008 25.3471C51.4983 25.7539 51.8823 26.3276 51.8823 26.9626C51.8812 27.5915 51.4816 28.1825 50.7863 28.5843L40.6155 34.471C39.9905 34.8326 39.1903 35.0134 38.3901 35.0134ZM38.4637 20.053C37.8622 20.053 37.2595 20.183 36.8097 20.4425L26.639 26.3292C26.3064 26.5218 26.1155 26.7533 26.1144 26.9637C26.1144 27.1713 26.3019 27.3996 26.6289 27.5898L36.7439 33.4827C37.6345 34.0017 39.1445 34.0011 40.0441 33.4821L50.2149 27.5954C50.5475 27.4029 50.7383 27.1713 50.7394 26.9609C50.7394 26.7533 50.5519 26.5251 50.2249 26.3348L40.11 20.442C39.6646 20.1825 39.0653 20.053 38.4637 20.053Z" fill="#006C5E"/>
<path d="M4.84626 16.2517C3.77152 16.8737 3.76591 17.8788 4.83356 18.5008L14.949 24.3935C16.0166 25.0154 17.7477 25.0155 18.8224 24.3935L28.993 18.5072C30.0678 17.8852 30.0734 16.8801 29.0058 16.2581L18.8903 10.3654C17.8227 9.74344 16.0916 9.74342 15.0169 10.3654L4.84626 16.2517Z" fill="white"/>
<path d="M16.8823 25.4302C16.082 25.4302 15.2829 25.2494 14.6613 24.8872L4.5452 18.9944C3.84766 18.5875 3.46373 18.0144 3.46485 17.3788C3.46596 16.7505 3.86552 16.159 4.56083 15.7572L14.7316 9.87102C15.9827 9.14558 17.9358 9.14725 19.178 9.87158L29.2941 15.7639C29.9916 16.1707 30.3756 16.7444 30.3744 17.3794C30.3733 18.0172 29.9838 18.5937 29.2796 19.0016L19.1077 24.8878C18.4827 25.2494 17.6825 25.4302 16.8823 25.4302ZM16.957 10.4698C16.3555 10.4698 15.7528 10.5998 15.3041 10.8599L5.13226 16.746C4.79967 16.9391 4.60882 17.1701 4.6077 17.3811C4.6077 17.5887 4.7952 17.8169 5.1211 18.0066L15.2372 23.8995C16.1267 24.419 17.6378 24.4173 18.5363 23.8989L28.707 18.0128C29.0396 17.8197 29.2305 17.5881 29.2316 17.3777C29.2316 17.1701 29.0441 16.9419 28.7182 16.7516L18.6021 10.8593C18.1579 10.5998 17.5575 10.4698 16.957 10.4698Z" fill="#006C5E"/>
<path d="M18.8288 24.396L28.9959 18.4994C29.5226 18.2097 29.7949 17.8006 29.7949 17.4087L29.9646 70.8555C29.9646 71.2645 29.6928 71.6735 29.1486 71.9973L18.982 77.8769C18.4258 78.1956 17.6924 78.3405 16.9639 78.3281L16.8938 24.8552C17.5894 24.8538 18.2872 24.7014 18.8288 24.396Z" fill="white"/>
<path d="M17.053 78.8999C17.0196 78.8999 16.9872 78.8999 16.9537 78.8993C16.6423 78.8938 16.3923 78.6399 16.3923 78.3285L16.322 24.8558C16.322 24.5405 16.5765 24.2844 16.8923 24.2838C17.5196 24.2827 18.1066 24.1466 18.5452 23.8999L28.7093 18.0048C29.0263 17.8307 29.2238 17.5991 29.2238 17.4088C29.2238 17.0935 29.4794 16.838 29.7941 16.8374C30.1089 16.8374 30.3655 17.0919 30.3667 17.4072L30.5363 70.8541C30.5363 71.4875 30.1479 72.0673 29.4414 72.4881L19.2673 78.3714C18.6702 78.7141 17.8879 78.8999 17.053 78.8999ZM17.466 25.3949L17.5341 77.7303C17.9805 77.6795 18.3879 77.5589 18.697 77.3815L28.8633 71.5031C29.1981 71.3034 29.3935 71.0656 29.3935 70.8558L29.2294 19.0243L19.1155 24.8904C19.1133 24.8915 19.1111 24.8926 19.1089 24.8938C18.6446 25.1555 18.0754 25.3279 17.466 25.3949Z" fill="#006C5E"/>
<path d="M4.83697 18.4999L14.953 24.3965C15.4909 24.7047 16.1915 24.857 16.8938 24.8556L16.9639 78.3285C16.2903 78.3171 15.6204 78.1723 15.1057 77.8774L4.99012 71.9807C4.46299 71.674 4.19112 71.2649 4.19112 70.873L4.03796 17.3921C4.03796 17.7841 4.31025 18.1931 4.83697 18.4999Z" fill="#1C966A"/>
<path d="M16.9637 78.8996C16.9603 78.8996 16.957 78.8996 16.9548 78.8996C16.1478 78.8862 15.3911 78.6992 14.822 78.3733L4.70253 72.4743C4.01503 72.0742 3.61994 71.4905 3.61994 70.8728L3.46704 17.4018C3.46704 17.3984 3.46704 17.3951 3.46704 17.3917C3.46704 17.0765 3.72262 16.8209 4.03735 16.8203C4.35209 16.8203 4.60878 17.0753 4.6099 17.3901V17.394C4.61101 17.5463 4.74718 17.7863 5.12329 18.0056L15.2405 23.9023C15.6635 24.1451 16.2561 24.2695 16.8923 24.284C17.044 24.284 17.1903 24.3437 17.2974 24.4509C17.4045 24.558 17.4648 24.7031 17.4648 24.8549L17.5351 78.3276C17.5351 78.4805 17.4737 78.6278 17.3644 78.7355C17.2572 78.8404 17.1132 78.8996 16.9637 78.8996ZM4.61436 19.0318L4.7628 70.8711C4.7628 71.0246 4.89784 71.2656 5.27731 71.4866L15.3934 77.3834C15.6635 77.5385 16.0072 77.6496 16.3911 77.7087L16.3231 25.3973C15.7059 25.3315 15.1322 25.1579 14.669 24.8923L4.61436 19.0318Z" fill="#006C5E"/>
<path d="M48.3175 14.4896C48.2639 14.4896 48.2093 14.4824 48.1557 14.4662L14.9336 4.65594C14.6311 4.56666 14.4581 4.24858 14.5474 3.94612C14.6367 3.64311 14.9615 3.47123 15.2572 3.55996L48.4793 13.3702C48.7818 13.4595 48.9548 13.7776 48.8655 14.0801C48.7918 14.3289 48.5642 14.4896 48.3175 14.4896Z" fill="#006C5E"/>
<path d="M44.1948 16.4104C43.9794 16.4104 43.7718 16.2871 43.6758 16.0778C43.5441 15.791 43.6691 15.4517 43.9559 15.32L47.5709 13.6576L46.0028 10.0493C45.8778 9.75972 46.0106 9.42322 46.2997 9.29766C46.5865 9.17155 46.9258 9.30436 47.0519 9.59398L48.8421 13.7151C48.966 14.0002 48.8388 14.3323 48.5564 14.4617L44.4336 16.3579C44.3566 16.3936 44.2751 16.4104 44.1948 16.4104Z" fill="#006C5E"/>
</g>
<defs>
<clipPath id="clip0_201_2173">
<rect width="80" height="80" fill="white" transform="translate(0.0362549 0.336426)"/>
</clipPath>
</defs>
</svg>
