<svg width="97" height="65" viewBox="0 0 97 65" fill="none" xmlns="http://www.w3.org/2000/svg">
<g clip-path="url(#clip0_134_5182)">
<path d="M22.3042 14.9773C24.3372 11.9142 23.2838 7.91618 19.9513 6.04748C16.6188 4.17877 12.2692 5.14702 10.2361 8.21012C8.20305 11.2732 9.25645 15.2712 12.589 17.1399C15.9215 19.0086 20.2711 18.0404 22.3042 14.9773Z" fill="#FF8C00"/>
<path d="M30.9867 20.9913C30.9867 20.9913 12.1323 20.9913 8.25392 20.9913C4.37552 20.9913 5.08592 19.7206 11.6331 19.1647C9.77072 14.1969 13.6395 11.3114 18.4395 13.2439C20.2827 6.96123 31.0539 6.70533 32.0427 14.7439C36.2475 13.6674 37.8891 17.1882 36.5067 19.5353C41.4987 19.5353 45.3771 21.0619 36.3051 21.0619C32.1771 21.0531 30.9867 20.9913 30.9867 20.9913Z" fill="#E2E2E2"/>
<path d="M92.9355 63.9902C92.9355 64.4578 92.5227 64.8373 92.0139 64.8373H3.42514C2.91634 64.8373 2.50354 64.4578 2.50354 63.9902C2.50354 63.5225 2.91634 63.1431 3.42514 63.1431H92.0139C92.5227 63.1431 92.9355 63.5225 92.9355 63.9902Z" fill="#C6C6C6"/>
<path d="M2.37869 48.0278C2.37869 48.0278 1.53389 37.4656 8.30189 33.0536C15.0795 28.6328 12.0363 28.3328 18.0843 22.2002C24.1323 16.0675 28.3467 10.6761 32.2251 7.08475C37.8315 1.89627 45.3003 0.837402 63.3195 0.837402C81.3387 0.837402 70.7307 0.837402 79.3227 0.837402C96.6699 0.837402 94.7691 13.7733 94.7691 16.2528V48.019H2.37869V48.0278Z" fill="#FFBE00"/>
<path d="M20.0139 27.4678H47.0475C49.1307 27.4678 49.6779 26.2678 49.6779 24.9354C49.6779 23.6029 49.6779 12.4318 49.6779 10.8877C49.6779 9.34347 49.0443 8.54932 47.0475 8.54932C45.0507 8.54932 39.8763 8.54932 37.9275 8.54932C35.9787 8.54932 32.1867 10.2082 30.8811 11.6112C28.2411 14.4525 24.5451 19.2969 19.3995 24.5824C17.7099 26.3207 18.1323 27.4678 20.0139 27.4678Z" fill="#07224F"/>
<path d="M85.9658 46.0249H93.425C93.425 46.0249 95.8442 48.2927 95.7194 50.3045C95.5946 52.3164 94.5962 55.0783 89.9594 55.0783C87.7802 49.8721 85.9658 46.0249 85.9658 46.0249Z" fill="#0447B7"/>
<path d="M59.153 55.0691H36.4202L33.0219 46.1128H62.369L59.153 55.0691Z" fill="#0447B7"/>
<path d="M74.1003 40.9775C74.0811 40.9775 74.0715 40.9775 74.0523 40.9775C74.0331 40.9775 74.0235 40.9775 74.0043 40.9775C57.5787 41.0305 58.0683 55.0782 58.0683 55.0782L60.4299 55.3782H73.5915C73.5915 55.3782 73.7835 55.0429 74.0523 54.4693C74.3307 55.0429 74.5131 55.3782 74.5131 55.3782H87.6747L90.0363 55.0782C90.0363 55.0782 90.5259 41.0305 74.1003 40.9775Z" fill="#FFBE00"/>
<path d="M74.1003 42.645C74.0811 42.645 74.0715 42.645 74.0523 42.645C74.0331 42.645 74.0235 42.645 74.0043 42.645C59.9979 42.698 60.4299 55.378 60.4299 55.378H73.5915C73.5915 55.378 73.7739 55.2103 74.0523 54.9103C74.3307 55.2103 74.5131 55.378 74.5131 55.378H87.6747C87.6747 55.378 88.1067 42.698 74.1003 42.645Z" fill="#048EFF"/>
<path d="M75.5723 60.951C79.8997 60.1685 82.7176 56.3096 81.8662 52.3321C81.0149 48.3545 76.8166 45.7644 72.4893 46.547C68.1619 47.3295 65.344 51.1883 66.1953 55.1659C67.0467 59.1435 71.2449 61.7335 75.5723 60.951Z" fill="#C6C6C6"/>
<path d="M74.0427 43.5366C67.8987 43.5366 62.9163 48.1162 62.9163 53.7636C62.9163 59.4109 67.8987 63.9905 74.0427 63.9905C80.1867 63.9905 85.1691 59.4109 85.1691 53.7636C85.1691 48.1162 80.1867 43.5366 74.0427 43.5366ZM74.0427 60.408C70.0491 60.408 66.8139 57.4343 66.8139 53.7636C66.8139 50.0928 70.0491 47.1191 74.0427 47.1191C78.0363 47.1191 81.2715 50.0928 81.2715 53.7636C81.2715 57.4343 78.0363 60.408 74.0427 60.408Z" fill="black"/>
<path d="M80.1777 54.8463C80.8271 51.7117 78.589 48.6868 75.1788 48.0899C71.7685 47.493 68.4775 49.5501 67.8281 52.6847C67.1787 55.8193 69.4168 58.8442 72.827 59.4412C76.2373 60.0381 79.5283 57.9809 80.1777 54.8463Z" fill="white"/>
<path d="M76.3179 53.8339C76.3179 54.9899 75.3003 55.9252 74.0427 55.9252C72.7851 55.9252 71.7675 54.9899 71.7675 53.8339C71.7675 52.678 72.7851 51.7427 74.0427 51.7427C75.3003 51.7427 76.3179 52.678 76.3179 53.8339Z" fill="#C6C6C6"/>
<path d="M68.705 50.7017C68.705 50.7017 71.057 52.1753 70.8938 53.0577C70.7306 53.9489 67.8026 54.5048 67.8026 54.5048C67.8026 54.5048 67.3898 52.6341 68.705 50.7017Z" fill="#C6C6C6"/>
<path d="M67.8027 54.5048C67.8027 54.5048 69.5691 53.8342 69.8283 52.9253C70.0875 52.0165 68.7051 50.6929 68.7051 50.6929C68.7051 50.6929 67.4955 52.2106 67.8027 54.5048Z" fill="#767777"/>
<path d="M73.3899 48.0103C73.3899 48.0103 73.5819 50.6221 72.7179 51.0545C71.8539 51.4869 69.5691 49.7133 69.5691 49.7133C69.5691 49.7133 70.9131 48.2573 73.3899 48.0103Z" fill="#C6C6C6"/>
<path d="M69.5691 49.7132C69.5691 49.7132 71.2299 50.578 72.1707 50.2074C73.1115 49.8368 73.3899 48.019 73.3899 48.019C73.3899 48.019 71.3355 48.072 69.5691 49.7132Z" fill="#767777"/>
<path d="M79.3706 50.7104C79.3706 50.7104 77.0186 52.184 77.1818 53.0664C77.345 53.9577 80.273 54.5136 80.273 54.5136C80.273 54.5136 80.6858 52.6517 79.3706 50.7104Z" fill="#C6C6C6"/>
<path d="M80.2731 54.5224C80.2731 54.5224 78.5067 53.8518 78.2475 52.9429C77.9883 52.034 79.3707 50.7104 79.3707 50.7104C79.3707 50.7104 80.5803 52.2282 80.2731 54.5224Z" fill="#767777"/>
<path d="M74.7242 48.0278C74.7242 48.0278 74.5322 50.6397 75.3962 51.0721C76.2602 51.5045 78.545 49.7309 78.545 49.7309C78.545 49.7309 77.201 48.2661 74.7242 48.0278Z" fill="#C6C6C6"/>
<path d="M78.545 49.722C78.545 49.722 76.8842 50.5868 75.9434 50.2162C75.0026 49.8456 74.7242 48.0278 74.7242 48.0278C74.7242 48.0278 76.769 48.0808 78.545 49.722Z" fill="#767777"/>
<path d="M77.3642 58.6696C77.3642 58.6696 75.9434 56.4019 76.5098 55.6695C77.0762 54.9371 79.985 55.6077 79.985 55.6077C79.985 55.6077 79.4762 57.4607 77.3642 58.6696Z" fill="#C6C6C6"/>
<path d="M79.985 55.6076C79.985 55.6076 78.0842 55.5017 77.4122 56.2164C76.7498 56.9312 77.3642 58.6695 77.3642 58.6695C77.3642 58.6695 79.1786 57.7959 79.985 55.6076Z" fill="#767777"/>
<path d="M70.7403 58.6784C70.7403 58.6784 72.1323 56.4018 71.5563 55.6694C70.9803 54.937 68.0811 55.643 68.0811 55.643C68.0811 55.643 68.6187 57.4872 70.7403 58.6784Z" fill="#C6C6C6"/>
<path d="M68.0811 55.6431C68.0811 55.6431 69.9819 55.5195 70.6635 56.2255C71.3355 56.9314 70.7403 58.6785 70.7403 58.6785C70.7403 58.6785 68.9163 57.8226 68.0811 55.6431Z" fill="#767777"/>
<path d="M76.1739 59.2081C76.1739 59.2081 75.1179 56.7815 74.1387 56.7374C73.1595 56.6933 71.9307 59.1993 71.9307 59.1993C71.9307 59.1993 73.8315 59.9758 76.1739 59.2081Z" fill="#C6C6C6"/>
<path d="M71.9307 59.1988C71.9307 59.1988 73.0251 57.7605 74.0427 57.7252C75.0603 57.6899 76.1739 59.2165 76.1739 59.2165C76.1739 59.2165 74.3019 59.9665 71.9307 59.1988Z" fill="#767777"/>
<path d="M72.4874 54.2661C72.4874 54.6102 72.1898 54.8838 71.8154 54.8838C71.441 54.8838 71.1434 54.6102 71.1434 54.2661C71.1434 53.922 71.441 53.6484 71.8154 53.6484C72.1898 53.6484 72.4874 53.9308 72.4874 54.2661Z" fill="#767777"/>
<path d="M72.9674 52.5103C72.9674 52.8544 72.6698 53.1279 72.2954 53.1279C71.921 53.1279 71.6234 52.8544 71.6234 52.5103C71.6234 52.1661 71.921 51.8926 72.2954 51.8926C72.6698 51.8926 72.9674 52.1749 72.9674 52.5103Z" fill="#767777"/>
<path d="M74.7146 51.7427C74.7146 52.0868 74.417 52.3604 74.0426 52.3604C73.6682 52.3604 73.3706 52.0868 73.3706 51.7427C73.3706 51.3985 73.6682 51.125 74.0426 51.125C74.417 51.125 74.7146 51.3985 74.7146 51.7427Z" fill="#767777"/>
<path d="M76.4235 52.4131C76.4235 52.7572 76.1259 53.0308 75.7515 53.0308C75.3771 53.0308 75.0795 52.7572 75.0795 52.4131C75.0795 52.069 75.3771 51.7954 75.7515 51.7954C76.1259 51.7954 76.4235 52.069 76.4235 52.4131Z" fill="#767777"/>
<path d="M75.6842 54.4783C75.4922 54.1871 75.5882 53.8077 75.905 53.6312C76.2218 53.4547 76.6346 53.543 76.8266 53.8341C77.0186 54.1253 76.9226 54.5048 76.6058 54.6812C76.289 54.8666 75.8762 54.7695 75.6842 54.4783Z" fill="#767777"/>
<path d="M74.5226 56.0222C74.3306 55.7311 74.4266 55.3516 74.7434 55.1751C75.0602 54.9987 75.473 55.0869 75.665 55.3781C75.857 55.6693 75.761 56.0487 75.4442 56.2252C75.1274 56.4105 74.7146 56.3134 74.5226 56.0222Z" fill="#767777"/>
<path d="M72.4395 56.0222C72.2475 55.7311 72.3435 55.3516 72.6603 55.1751C72.9771 54.9987 73.3899 55.0869 73.5819 55.3781C73.7739 55.6693 73.6779 56.0487 73.3611 56.2252C73.0539 56.4105 72.6411 56.3134 72.4395 56.0222Z" fill="#767777"/>
<path d="M75.0699 53.7808C75.0891 54.275 74.6667 54.6809 74.1387 54.6985C73.6011 54.7162 73.1595 54.3279 73.1403 53.8426C73.1211 53.3484 73.5435 52.9425 74.0715 52.9249C74.5995 52.9072 75.0507 53.2955 75.0699 53.7808Z" fill="#767777"/>
<path d="M9.01228 46.0249C9.01228 46.0249 4.79788 46.0249 2.37868 46.0249C-0.0405188 46.0249 -0.0405187 48.2927 0.0842813 50.3045C0.209081 52.3164 0.689081 55.0783 5.02828 55.0783C7.19788 49.8721 9.01228 46.0249 9.01228 46.0249Z" fill="#0447B7"/>
<path d="M96.0362 44.066C96.0362 44.6925 95.489 45.1954 94.8074 45.1954H91.3707C90.6891 45.1954 90.1418 44.6925 90.1418 44.066V35.0479C90.1418 34.4214 90.6891 33.9185 91.3707 33.9185H94.8074C95.489 33.9185 96.0362 34.4214 96.0362 35.0479V44.066Z" fill="#FF8C00"/>
<path d="M94.8074 45.1954H91.3707C90.6891 45.1954 90.1418 44.6925 90.1418 44.066V35.0479C90.1418 34.4214 90.6891 33.9185 91.3707 33.9185H94.8074C94.8074 33.9185 92.4747 35.3832 92.4747 39.557C92.4747 43.7307 94.8074 45.1954 94.8074 45.1954Z" fill="#FF5C00"/>
<path d="M5.01868 46.0249C5.01868 46.0249 11.0571 32.3037 31.6107 32.3037C56.8971 32.3037 59.4219 46.1132 59.4219 46.1132L5.01868 46.0249Z" fill="#FF8C00"/>
<path d="M21.0411 40.9775C21.0219 40.9775 21.0123 40.9775 20.9931 40.9775C20.9739 40.9775 20.9643 40.9775 20.9451 40.9775C4.51952 41.0305 5.00912 55.0782 5.00912 55.0782L7.37072 55.3782H20.5323C20.5323 55.3782 20.7243 55.0429 20.9931 54.4693C21.2715 55.0429 21.4539 55.3782 21.4539 55.3782H34.6155L36.9771 55.0782C36.9771 55.0782 37.4667 41.0305 21.0411 40.9775Z" fill="#FFBE00"/>
<path d="M21.0412 42.645C21.022 42.645 21.0124 42.645 20.9932 42.645C20.974 42.645 20.9644 42.645 20.9452 42.645C6.94837 42.698 7.38037 55.378 7.38037 55.378H20.542C20.542 55.378 20.7244 55.2103 21.0028 54.9103C21.2812 55.2103 21.4636 55.378 21.4636 55.378H34.6252C34.6156 55.378 35.0476 42.698 21.0412 42.645Z" fill="#048EFF"/>
<path d="M23.7966 60.6669C27.9255 59.2356 30.0103 54.9988 28.4532 51.2037C26.896 47.4086 22.2865 45.4923 18.1577 46.9236C14.0288 48.3549 11.944 52.5917 13.5011 56.3868C15.0583 60.1819 19.6677 62.0982 23.7966 60.6669Z" fill="#C6C6C6"/>
<path d="M20.9836 43.5366C14.8396 43.5366 9.85718 48.1162 9.85718 53.7636C9.85718 59.4109 14.8396 63.9905 20.9836 63.9905C27.1276 63.9905 32.11 59.4109 32.11 53.7636C32.11 48.1162 27.1276 43.5366 20.9836 43.5366ZM20.9836 60.408C16.99 60.408 13.7548 57.4343 13.7548 53.7636C13.7548 50.0928 16.99 47.1191 20.9836 47.1191C24.9772 47.1191 28.2124 50.0928 28.2124 53.7636C28.2124 57.4343 24.9772 60.408 20.9836 60.408Z" fill="black"/>
<path d="M27.0231 55.3942C27.9954 52.3298 26.0811 49.1211 22.7472 48.2274C19.4134 47.3336 15.9225 49.0932 14.9501 52.1576C13.9777 55.2219 15.8921 58.4306 19.2259 59.3244C22.5598 60.2181 26.0507 58.4585 27.0231 55.3942Z" fill="white"/>
<path d="M23.2588 53.8339C23.2588 54.9899 22.2412 55.9252 20.9836 55.9252C19.726 55.9252 18.7084 54.9899 18.7084 53.8339C18.7084 52.678 19.726 51.7427 20.9836 51.7427C22.2412 51.7427 23.2588 52.678 23.2588 53.8339Z" fill="#C6C6C6"/>
<path d="M15.6459 50.7017C15.6459 50.7017 17.9979 52.1753 17.8347 53.0577C17.6715 53.9489 14.7435 54.5048 14.7435 54.5048C14.7435 54.5048 14.3307 52.6341 15.6459 50.7017Z" fill="#C6C6C6"/>
<path d="M14.7436 54.5048C14.7436 54.5048 16.51 53.8342 16.7692 52.9253C17.0284 52.0165 15.646 50.6929 15.646 50.6929C15.646 50.6929 14.4364 52.2106 14.7436 54.5048Z" fill="#767777"/>
<path d="M20.3308 48.0103C20.3308 48.0103 20.5228 50.6221 19.6588 51.0545C18.7948 51.4869 16.51 49.7133 16.51 49.7133C16.51 49.7133 17.854 48.2573 20.3308 48.0103Z" fill="#C6C6C6"/>
<path d="M16.51 49.7132C16.51 49.7132 18.1708 50.578 19.1116 50.2074C20.0524 49.8368 20.3308 48.019 20.3308 48.019C20.3308 48.019 18.2764 48.072 16.51 49.7132Z" fill="#767777"/>
<path d="M26.3115 50.7104C26.3115 50.7104 23.9595 52.184 24.1227 53.0664C24.2859 53.9577 27.2139 54.5136 27.2139 54.5136C27.2139 54.5136 27.6267 52.6517 26.3115 50.7104Z" fill="#C6C6C6"/>
<path d="M27.214 54.5224C27.214 54.5224 25.4476 53.8518 25.1884 52.9429C24.9292 52.034 26.3116 50.7104 26.3116 50.7104C26.3116 50.7104 27.5212 52.2282 27.214 54.5224Z" fill="#767777"/>
<path d="M21.6652 48.0278C21.6652 48.0278 21.4732 50.6397 22.3372 51.0721C23.2012 51.5045 25.486 49.7309 25.486 49.7309C25.486 49.7309 24.142 48.2661 21.6652 48.0278Z" fill="#C6C6C6"/>
<path d="M25.4763 49.722C25.4763 49.722 23.8155 50.5868 22.8747 50.2162C21.9339 49.8456 21.6555 48.0278 21.6555 48.0278C21.6555 48.0278 23.7099 48.0808 25.4763 49.722Z" fill="#767777"/>
<path d="M24.3052 58.6696C24.3052 58.6696 22.8844 56.4019 23.4508 55.6695C24.0172 54.9371 26.926 55.6077 26.926 55.6077C26.926 55.6077 26.4172 57.4607 24.3052 58.6696Z" fill="#C6C6C6"/>
<path d="M26.926 55.6076C26.926 55.6076 25.0252 55.5017 24.3532 56.2164C23.6908 56.9312 24.3052 58.6695 24.3052 58.6695C24.3052 58.6695 26.1196 57.7959 26.926 55.6076Z" fill="#767777"/>
<path d="M17.6812 58.6784C17.6812 58.6784 19.0732 56.4018 18.4972 55.6694C17.9212 54.937 15.022 55.643 15.022 55.643C15.022 55.643 15.5596 57.4872 17.6812 58.6784Z" fill="#C6C6C6"/>
<path d="M15.022 55.6431C15.022 55.6431 16.9228 55.5195 17.6044 56.2255C18.2764 56.9314 17.6812 58.6785 17.6812 58.6785C17.6812 58.6785 15.8572 57.8226 15.022 55.6431Z" fill="#767777"/>
<path d="M23.1148 59.2081C23.1148 59.2081 22.0588 56.7815 21.0796 56.7374C20.1004 56.6933 18.8716 59.1993 18.8716 59.1993C18.8716 59.1993 20.7724 59.9758 23.1148 59.2081Z" fill="#C6C6C6"/>
<path d="M18.8716 59.1988C18.8716 59.1988 19.966 57.7605 20.9836 57.7252C22.0012 57.6899 23.1148 59.2165 23.1148 59.2165C23.1148 59.2165 21.2428 59.9665 18.8716 59.1988Z" fill="#767777"/>
<path d="M19.4284 54.2661C19.4284 54.6102 19.1308 54.8838 18.7564 54.8838C18.382 54.8838 18.0844 54.6102 18.0844 54.2661C18.0844 53.922 18.382 53.6484 18.7564 53.6484C19.1308 53.6484 19.4284 53.9308 19.4284 54.2661Z" fill="#767777"/>
<path d="M19.9083 52.5103C19.9083 52.8544 19.6107 53.1279 19.2363 53.1279C18.8619 53.1279 18.5643 52.8544 18.5643 52.5103C18.5643 52.1661 18.8619 51.8926 19.2363 51.8926C19.6107 51.8926 19.9083 52.1749 19.9083 52.5103Z" fill="#767777"/>
<path d="M21.6555 51.7427C21.6555 52.0868 21.3579 52.3604 20.9835 52.3604C20.6091 52.3604 20.3115 52.0868 20.3115 51.7427C20.3115 51.3985 20.6091 51.125 20.9835 51.125C21.3579 51.125 21.6555 51.3985 21.6555 51.7427Z" fill="#767777"/>
<path d="M23.3644 52.4131C23.3644 52.7572 23.0668 53.0308 22.6924 53.0308C22.318 53.0308 22.0204 52.7572 22.0204 52.4131C22.0204 52.069 22.318 51.7954 22.6924 51.7954C23.0668 51.7954 23.3644 52.069 23.3644 52.4131Z" fill="#767777"/>
<path d="M22.6251 54.4783C22.4331 54.1871 22.5291 53.8077 22.8459 53.6312C23.1627 53.4547 23.5755 53.543 23.7675 53.8341C23.9595 54.1253 23.8635 54.5048 23.5467 54.6812C23.2299 54.8666 22.8171 54.7695 22.6251 54.4783Z" fill="#767777"/>
<path d="M21.4635 56.0222C21.2715 55.7311 21.3675 55.3516 21.6843 55.1751C22.0011 54.9987 22.4139 55.0869 22.6059 55.3781C22.7979 55.6693 22.7019 56.0487 22.3851 56.2252C22.0683 56.4105 21.6555 56.3134 21.4635 56.0222Z" fill="#767777"/>
<path d="M19.3804 56.0222C19.1884 55.7311 19.2844 55.3516 19.6012 55.1751C19.918 54.9987 20.3308 55.0869 20.5228 55.3781C20.7148 55.6693 20.6188 56.0487 20.302 56.2252C19.9948 56.4105 19.582 56.3134 19.3804 56.0222Z" fill="#767777"/>
<path d="M22.0108 53.7808C22.03 54.275 21.6076 54.6809 21.0796 54.6985C20.542 54.7162 20.1004 54.3279 20.0812 53.8426C20.062 53.3484 20.4844 52.9425 21.0124 52.9249C21.5404 52.9072 21.9916 53.2955 22.0108 53.7808Z" fill="#767777"/>
<path d="M28.1834 27.4679L26.4554 20.8587C26.3402 20.4175 26.6282 19.9763 27.1082 19.8705C27.5882 19.7646 28.0682 20.0293 28.1834 20.4705L30.0362 27.459H28.1834V27.4679Z" fill="#FFBE00"/>
<path d="M45.0219 20.1353C44.0811 16.7292 41.0379 17.0557 41.0379 17.0557C41.0379 17.0557 40.1355 16.7028 38.6475 17.1969C36.2955 18.9529 37.9659 25.209 37.9659 25.209L38.5995 27.468H47.0571C46.5867 25.209 45.7419 22.7472 45.0219 20.1353Z" fill="#0447B7"/>
<path d="M40.1354 21.8204C40.1354 21.8204 39.7322 21.3616 41.2394 18.4144C41.5466 17.8144 41.585 17.3997 41.4314 17.1349C42.4394 17.0379 44.4458 17.2849 45.0794 20.3998C44.5514 22.6234 43.0154 23.6558 43.0154 23.6558C43.0154 23.6558 42.785 23.9294 42.3242 23.8235C42.5642 23.4793 42.689 23.294 42.689 23.294C42.689 23.294 41.3162 22.2087 40.1354 21.8204Z" fill="#FF8C00"/>
<path d="M42.9386 23.409C42.9386 23.409 41.3546 24.9532 39.3482 25.262C36.1706 25.7473 29.8154 25.6855 29.8154 25.6855C29.8154 25.6855 28.9322 26.0297 27.7898 25.5444C26.4938 24.9973 26.1194 24.4678 26.6762 23.5678C27.233 22.6678 27.5498 22.1207 28.2314 22.5795C28.913 23.0384 30.1514 23.8855 30.1514 23.8855C30.1514 23.8855 34.6154 23.2854 37.9082 22.5972C38.4074 22.4913 40.0874 21.6089 40.0874 21.6089C40.0874 21.6089 42.2474 22.1824 42.9386 23.409Z" fill="#FFC182"/>
<path d="M38.4362 17.9909L38.369 18.0085C38.369 18.0085 38.5226 18.6703 39.329 18.6439C40.1354 18.6262 41.1338 17.6997 41.1338 17.6997C41.1338 17.6997 39.6074 18.0262 38.4362 17.9909Z" fill="#F9A355"/>
<path d="M38.7531 5.65506C38.7435 5.84036 39.0027 6.00801 39.3387 6.02566C39.6747 6.04331 39.9627 5.91095 39.9723 5.71682C39.9819 5.53152 39.7227 5.36387 39.3867 5.34622C39.0507 5.32857 38.7723 5.46975 38.7531 5.65506Z" fill="#0447B7"/>
<path d="M38.5034 17.9907C33.617 17.726 34.2698 14.3993 34.2698 14.3993C34.2698 14.3993 32.897 14.417 33.0026 12.7316C33.1082 11.0463 34.4522 11.6022 34.4522 11.6022L34.5578 9.93444C34.5578 9.93444 34.625 8.31966 39.1082 8.56673L39.2714 8.57555C43.7642 8.8138 43.6202 10.4286 43.6202 10.4286L43.5146 12.0963C43.5146 12.0963 44.9162 11.6904 44.8106 13.3758C44.705 15.0611 43.3418 14.8935 43.3418 14.8935C43.3418 14.8935 43.3706 18.2554 38.6762 17.9995L38.5034 17.9907Z" fill="#FFC182"/>
<path d="M44.0522 10.3581L43.9466 12.0523C43.9466 12.0523 43.7066 12.0082 43.4954 12.0876C43.1306 11.5141 43.0826 10.3052 43.0826 10.3052L44.0522 10.3581Z" fill="#8E453C"/>
<path d="M40.7498 13.1554C40.7306 13.3937 40.9322 13.5878 41.1818 13.6054C41.441 13.6231 41.6522 13.4378 41.6714 13.2084L41.6906 12.8731C41.7098 12.6348 41.5082 12.4407 41.2586 12.423C40.9994 12.4054 40.7882 12.5907 40.769 12.8201L40.7498 13.1554Z" fill="black"/>
<path d="M42.209 11.5232C42.209 11.5232 41.537 11.1702 40.6538 11.532C40.3946 11.6467 40.2794 11.4085 40.5002 11.2938C40.6346 11.2232 41.4026 10.932 42.2762 11.3908C42.353 11.4614 42.2762 11.5585 42.209 11.5232Z" fill="black"/>
<path d="M34.1162 9.81982L34.0106 11.514C34.0106 11.514 34.2506 11.4964 34.4522 11.6023C34.8938 11.0728 35.0858 9.87277 35.0858 9.87277L34.1162 9.81982Z" fill="#8E453C"/>
<path d="M37.0443 12.9526C37.0251 13.1908 36.8139 13.3673 36.5547 13.3496C36.2955 13.332 36.1035 13.1379 36.1227 12.8996L36.1419 12.5643C36.1611 12.3261 36.3723 12.1496 36.6315 12.1672C36.8907 12.1849 37.0827 12.379 37.0635 12.6173L37.0443 12.9526Z" fill="black"/>
<path d="M35.8059 11.1788C35.8059 11.1788 36.5163 10.9052 37.3515 11.3552C37.5915 11.4964 37.7451 11.2758 37.5339 11.1346C37.4091 11.0552 36.6795 10.6846 35.7579 11.0376C35.6715 11.0993 35.7291 11.2052 35.8059 11.1788Z" fill="black"/>
<path d="M39.2906 5.68151C34.8458 5.44327 34.2602 7.57866 34.2026 8.43458C34.145 9.28168 34.1162 9.81994 34.1162 9.81994L39.0026 10.0847L39.1658 10.0935L44.0522 10.3582C44.0522 10.3582 44.0906 9.81994 44.1386 8.97284C44.1962 8.12574 43.889 5.93741 39.4442 5.69034L39.2906 5.68151Z" fill="#FF8C00"/>
<path d="M39.0314 9.62595C35.3642 9.43183 34.5674 9.84655 34.5674 9.84655C34.5674 9.84655 35.681 10.8348 39.0218 11.0113C42.3626 11.1878 43.601 10.3319 43.601 10.3319C43.601 10.3319 42.8618 9.8289 39.1946 9.62595H39.0314Z" fill="#0447B7"/>
<path d="M43.3322 14.1083L43.409 12.9259C43.409 12.9259 44.1866 12.67 44.1386 13.3847C44.1002 14.0112 43.5242 14.1171 43.3322 14.1083Z" fill="#F9A355"/>
<path d="M34.3466 13.6231L34.4234 12.4407C34.4234 12.4407 33.6842 12.0966 33.6362 12.8113C33.5978 13.4467 34.1546 13.6143 34.3466 13.6231Z" fill="#F9A355"/>
<path d="M40.2698 14.9909L38.7818 14.9114L37.2938 14.832C37.2938 14.832 37.0442 16.4468 38.6762 16.535C40.3082 16.6233 40.2698 14.9909 40.2698 14.9909Z" fill="#8E453C"/>
<path d="M37.2843 14.832C37.2843 14.832 37.2267 15.2379 37.4859 15.2556C38.1963 15.2909 39.3291 15.3526 40.0299 15.3968C40.2795 15.4144 40.2603 14.9997 40.2603 14.9997L37.2843 14.832Z" fill="white"/>
<path d="M39.4346 16.4205C39.4346 16.4205 39.1562 16.5617 38.657 16.5352C38.1578 16.5087 37.937 16.3411 37.937 16.3411C37.937 16.3411 38.1578 15.944 38.7146 15.9793C39.2618 16.0057 39.4346 16.4205 39.4346 16.4205Z" fill="#F95C57"/>
<path d="M20.0138 27.4677H47.0474C49.0922 27.4677 49.649 26.3206 49.6778 25.0235C49.6778 24.997 19.0058 25.0235 19.0058 25.0235C17.7866 26.5147 18.2858 27.4677 20.0138 27.4677Z" fill="#048EFF"/>
<path d="M37.937 18.0527C37.937 18.0527 37.1786 19.7558 37.505 22.6853C36.2474 22.9235 36.161 22.9412 36.161 22.9412C36.161 22.9412 35.9786 20.0293 37.937 18.0527Z" fill="#FF8C00"/>
<path d="M20.6859 29.2063C20.6859 30.124 19.8795 30.8652 18.8811 30.8652C17.8827 30.8652 17.0763 30.124 17.0763 29.2063V25.7297C17.0763 24.812 17.8827 24.0708 18.8811 24.0708C19.8795 24.0708 20.6859 24.812 20.6859 25.7297V29.2063Z" fill="#FF5C00"/>
<path d="M49.2267 29.9742C49.2267 30.4684 48.7947 30.8654 48.2571 30.8654H43.2747C42.7371 30.8654 42.3051 30.4684 42.3051 29.9742C42.3051 29.4801 42.7371 29.083 43.2747 29.083H48.2571C48.7947 29.0918 49.2267 29.4889 49.2267 29.9742Z" fill="#FF5C00"/>
<path d="M39.2618 6.63452L37.1594 6.57275C37.1594 6.57275 36.7082 6.59923 39.0602 6.73158L38.6474 6.93454L37.6778 6.90806C37.6778 6.90806 37.409 6.92571 38.5034 7.00513L38.2538 7.12866L39.2234 7.67575L40.2314 7.19043L39.2618 6.63452Z" fill="white"/>
<path d="M39.233 8.97297L40.1834 8.51412L40.2314 7.2876L39.281 7.74644L39.233 8.97297Z" fill="white"/>
<path d="M38.2538 7.23455C38.2538 7.22573 38.2538 7.22573 38.2538 7.23455L36.881 7.19043C36.881 7.19043 36.6794 7.23455 38.2442 7.34044L38.225 7.86105L37.169 7.82575C37.169 7.82575 36.8618 7.85222 38.2154 7.94046L38.1962 8.37284L36.5354 8.31989C36.5354 8.31989 36.113 8.34637 38.2154 8.4699L39.1082 8.97286L39.1562 7.74634L38.2538 7.23455Z" fill="white"/>
<path d="M67.5627 5.40806L87.0891 5.07275C87.0891 5.07275 102.747 5.07275 70.2027 6.77577L75.7227 9.65238H83.0187C83.0187 9.65238 92.4843 10.0583 77.6523 10.6583L80.9931 12.3966L67.5627 19.4028L54.1323 12.3966L67.5627 5.40806Z" fill="#FF5C00"/>
<path d="M66.7947 37.2185L54.1323 30.6182V13.9409L66.7659 20.5324L66.7947 37.2185Z" fill="#FF5C00"/>
<path d="M80.9259 13.985C80.9643 13.9585 80.9835 13.9497 80.9835 13.9497L91.6299 14.1968C91.6299 14.1968 102.372 14.638 80.9931 15.441V22.4648H89.4507C89.4507 22.4648 99.3963 22.9236 80.9931 23.5943V29.4269H92.9451C92.9451 29.4269 100.903 29.9828 80.8011 30.724L68.4363 37.1655L68.4459 20.4971L80.9259 13.985Z" fill="#FF5C00"/>
<path d="M2.52267 44.5776C2.52267 44.5776 1.85067 43.6069 2.52267 39.4244C3.03147 36.2566 5.07627 34.9065 10.4427 34.5359C15.8091 34.1653 12.7851 39.5038 9.67467 42.248C6.56427 44.9835 3.47307 44.5776 2.52267 44.5776Z" fill="#FF5C00"/>
<path d="M3.15625 39.5129C3.59785 37.5187 4.46185 36.0715 7.64905 35.6745C10.8362 35.2862 10.1642 37.8804 7.86025 40.6512C5.54665 43.4131 2.10985 44.269 3.15625 39.5129Z" fill="#FF8C00"/>
</g>
<defs>
<clipPath id="clip0_134_5182">
<rect width="96" height="64" fill="white" transform="translate(0.0362549 0.837402)"/>
</clipPath>
</defs>
</svg>
