<svg width="13" height="12" viewBox="0 0 13 12" fill="none" xmlns="http://www.w3.org/2000/svg">
<path d="M11 11H2C1.795 11 1.625 10.83 1.625 10.625C1.625 10.42 1.795 10.25 2 10.25H11C11.205 10.25 11.375 10.42 11.375 10.625C11.375 10.83 11.205 11 11 11Z" fill="white"/>
<path d="M10.01 1.73983C9.04004 0.769834 8.09004 0.744834 7.09504 1.73983L6.49004 2.34483C6.44004 2.39483 6.42004 2.47483 6.44004 2.54483C6.82004 3.86983 7.88004 4.92983 9.20504 5.30983C9.22504 5.31483 9.24504 5.31983 9.26504 5.31983C9.32004 5.31983 9.37004 5.29983 9.41004 5.25983L10.01 4.65483C10.505 4.16483 10.745 3.68983 10.745 3.20983C10.75 2.71483 10.51 2.23483 10.01 1.73983Z" fill="white"/>
<path d="M8.30491 5.76539C8.15991 5.69539 8.01992 5.62539 7.88492 5.54539C7.77492 5.48039 7.66992 5.41039 7.56492 5.33539C7.47992 5.28039 7.37991 5.20039 7.28491 5.12039C7.27491 5.11539 7.23991 5.08539 7.19991 5.04539C7.03491 4.90539 6.84992 4.72539 6.68492 4.52539C6.66992 4.51539 6.64492 4.48039 6.60992 4.43539C6.55992 4.37539 6.47492 4.27539 6.39992 4.16039C6.33992 4.08539 6.26992 3.97539 6.20492 3.86539C6.12492 3.73039 6.05492 3.59539 5.98492 3.45539C5.89314 3.25872 5.63501 3.2003 5.48155 3.35376L2.66992 6.16539C2.60492 6.23039 2.54492 6.35539 2.52992 6.44039L2.25992 8.35539C2.20992 8.69539 2.30492 9.01539 2.51492 9.23039C2.69492 9.40539 2.94492 9.50039 3.21492 9.50039C3.27492 9.50039 3.33492 9.49539 3.39492 9.48539L5.31492 9.21539C5.40492 9.20039 5.52992 9.14039 5.58992 9.07539L8.40618 6.25912C8.55658 6.10873 8.50007 5.84996 8.30491 5.76539Z" fill="white"/>
</svg>
