<svg width="208" height="163" viewBox="0 0 208 163" fill="none" xmlns="http://www.w3.org/2000/svg">
<circle opacity="0.08" cx="98.5" cy="77" r="68" fill="#0EBE7E"/>
<g filter="url(#filter0_d_134_2447)">
<path d="M129.5 54H66.5C62.7725 54 60.9087 54 59.4385 54.609C57.4783 55.4209 55.9209 56.9783 55.109 58.9385C54.5 60.4087 54.5 62.2725 54.5 66V103C54.5 106.728 54.5 108.591 55.109 110.061C55.9209 112.022 57.4783 113.579 59.4385 114.391C60.9087 115 62.7725 115 66.5 115H129.5C133.228 115 135.091 115 136.561 114.391C138.522 113.579 140.079 112.022 140.891 110.061C141.5 108.591 141.5 106.728 141.5 103V66C141.5 62.2725 141.5 60.4087 140.891 58.9385C140.079 56.9783 138.522 55.4209 136.561 54.609C135.091 54 133.228 54 129.5 54Z" fill="#F8FAFC"/>
</g>
<path d="M54.5 66V106.131C54.5 106.938 54.5 107.342 54.5291 107.682C54.861 111.562 57.9383 114.639 61.8182 114.971C62.1585 115 62.562 115 63.3691 115H64.1131C65.9632 115 67.7392 114.273 69.0581 112.976L95.6196 86.8496C96.8225 85.6664 97.5 84.0497 97.5 82.3624C97.5 80.9291 97.0108 79.5388 96.1133 78.4213L78.4254 56.3974C77.2081 54.8817 75.3691 54 73.4252 54H66.5C62.7725 54 60.9087 54 59.4385 54.609C57.4783 55.4209 55.9209 56.9783 55.109 58.9385C54.5 60.4087 54.5 62.2725 54.5 66Z" fill="white"/>
<path d="M141.5 66V106.131C141.5 106.938 141.5 107.342 141.471 107.682C141.139 111.562 138.062 114.639 134.182 114.971C133.842 115 133.438 115 132.631 115H131.887C130.037 115 128.261 114.273 126.942 112.976L100.38 86.8496C99.1775 85.6664 98.5 84.0497 98.5 82.3624C98.5 80.9291 98.9892 79.5388 99.8867 78.4213L117.575 56.3974C118.792 54.8817 120.631 54 122.575 54H129.5C133.228 54 135.091 54 136.561 54.609C138.522 55.4209 140.079 56.9783 140.891 58.9385C141.5 60.4087 141.5 62.2725 141.5 66Z" fill="white"/>
<g filter="url(#filter1_d_134_2447)">
<path d="M133.183 54L62.9037 54C62.5289 54 62.3414 54 62.183 54.0063C58.0137 54.1716 54.6716 57.5137 54.5063 61.683C54.5 61.8414 54.5 62.0289 54.5 62.4037C54.5 62.5959 54.5 62.692 54.5021 62.7836C54.5555 65.116 55.6244 67.3089 57.4288 68.7878C57.4996 68.8458 57.5753 68.905 57.7267 69.0235L90.7181 94.8244C92.5207 96.2341 94.7432 97 97.0316 97C99.2321 97 101.374 96.2917 103.141 94.98L138.141 68.9938L138.142 68.9932C138.266 68.901 138.328 68.8549 138.387 68.8099C140.309 67.3268 141.454 65.0509 141.499 62.6233C141.5 62.5495 141.5 62.4718 141.5 62.3165C141.5 62.0226 141.5 61.8757 141.496 61.7514C141.365 57.5281 137.972 54.1351 133.749 54.0039C133.624 54 133.477 54 133.183 54Z" fill="white"/>
</g>
<circle cx="136" cy="59.5" r="18.5" fill="#0EBE7E"/>
<path d="M135.694 66.2876C134.594 66.2834 133.648 66.0128 132.856 65.4759C132.067 64.9389 131.46 64.1612 131.034 63.1428C130.612 62.1243 130.403 60.8991 130.408 59.4673C130.408 58.0398 130.619 56.8232 131.04 55.8175C131.467 54.8118 132.074 54.0469 132.862 53.5227C133.655 52.9943 134.599 52.7301 135.694 52.7301C136.789 52.7301 137.731 52.9943 138.519 53.5227C139.312 54.0511 139.921 54.8182 140.347 55.8239C140.773 56.8253 140.984 58.0398 140.98 59.4673C140.98 60.9034 140.767 62.1307 140.341 63.1491C139.919 64.1676 139.314 64.9453 138.526 65.4822C137.737 66.0192 136.793 66.2876 135.694 66.2876ZM135.694 63.9929C136.444 63.9929 137.043 63.6158 137.49 62.8615C137.938 62.1072 138.159 60.9759 138.155 59.4673C138.155 58.4744 138.053 57.6477 137.848 56.9872C137.648 56.3267 137.362 55.8303 136.991 55.4979C136.625 55.1655 136.192 54.9993 135.694 54.9993C134.948 54.9993 134.352 55.3722 133.904 56.1179C133.457 56.8636 133.231 57.9801 133.227 59.4673C133.227 60.473 133.327 61.3125 133.527 61.9858C133.732 62.6548 134.019 63.1577 134.39 63.4943C134.761 63.8267 135.195 63.9929 135.694 63.9929Z" fill="white"/>
<defs>
<filter id="filter0_d_134_2447" x="31.5" y="40" width="133" height="107" filterUnits="userSpaceOnUse" color-interpolation-filters="sRGB">
<feFlood flood-opacity="0" result="BackgroundImageFix"/>
<feColorMatrix in="SourceAlpha" type="matrix" values="0 0 0 0 0 0 0 0 0 0 0 0 0 0 0 0 0 0 127 0" result="hardAlpha"/>
<feOffset dy="9"/>
<feGaussianBlur stdDeviation="11.5"/>
<feComposite in2="hardAlpha" operator="out"/>
<feColorMatrix type="matrix" values="0 0 0 0 0.294118 0 0 0 0 0.333333 0 0 0 0 0.388235 0 0 0 0.14 0"/>
<feBlend mode="normal" in2="BackgroundImageFix" result="effect1_dropShadow_134_2447"/>
<feBlend mode="normal" in="SourceGraphic" in2="effect1_dropShadow_134_2447" result="shape"/>
</filter>
<filter id="filter1_d_134_2447" x="0.5" y="0" width="207" height="163" filterUnits="userSpaceOnUse" color-interpolation-filters="sRGB">
<feFlood flood-opacity="0" result="BackgroundImageFix"/>
<feColorMatrix in="SourceAlpha" type="matrix" values="0 0 0 0 0 0 0 0 0 0 0 0 0 0 0 0 0 0 127 0" result="hardAlpha"/>
<feOffset dx="6" dy="6"/>
<feGaussianBlur stdDeviation="30"/>
<feComposite in2="hardAlpha" operator="out"/>
<feColorMatrix type="matrix" values="0 0 0 0 0 0 0 0 0 0 0 0 0 0 0 0 0 0 0.08 0"/>
<feBlend mode="normal" in2="BackgroundImageFix" result="effect1_dropShadow_134_2447"/>
<feBlend mode="normal" in="SourceGraphic" in2="effect1_dropShadow_134_2447" result="shape"/>
</filter>
</defs>
</svg>
