<svg width="20" height="18" viewBox="0 0 20 18" fill="none" xmlns="http://www.w3.org/2000/svg">
<path d="M19.8391 1.10094C19.7232 0.974375 19.5594 0.902344 19.3878 0.902344H14.4418L14.3883 1.51457L14.3836 1.56793L14.3348 2.12684L14.0562 5.31059C14.0545 5.33043 14.0518 5.34992 14.0483 5.3691C14.0457 5.38359 14.042 5.39773 14.0383 5.41188C14.0372 5.41637 14.0364 5.42106 14.0352 5.42551C14.0303 5.44254 14.0245 5.4591 14.0184 5.47547C14.0178 5.47688 14.0175 5.47832 14.0169 5.47973C14.0105 5.49625 14.0032 5.51234 13.9955 5.52813C13.9949 5.52918 13.9945 5.53035 13.9939 5.53148C13.9868 5.54582 13.9788 5.55961 13.9706 5.57324C13.9691 5.57566 13.9679 5.57816 13.9664 5.58059C13.9589 5.59262 13.9507 5.6041 13.9424 5.61547C13.9397 5.61918 13.9374 5.62313 13.9346 5.62668C13.9274 5.63613 13.9196 5.645 13.9119 5.65402C13.9075 5.65922 13.9034 5.66469 13.8989 5.66965C13.8923 5.67688 13.8852 5.68344 13.8783 5.69031C13.872 5.6966 13.8659 5.70313 13.8594 5.70914C13.8534 5.71465 13.8469 5.71957 13.8407 5.72484C13.8327 5.73152 13.825 5.73852 13.8166 5.74484C13.8109 5.74922 13.8046 5.75309 13.7986 5.75731C13.7894 5.76383 13.7804 5.77055 13.7708 5.77652C13.7641 5.7807 13.757 5.78422 13.7502 5.78816C13.7409 5.79348 13.7318 5.7991 13.7223 5.80387C13.7114 5.80938 13.7003 5.81398 13.6891 5.81879C13.6831 5.82137 13.6774 5.82438 13.6713 5.82676C13.6014 5.85441 13.5257 5.86957 13.4469 5.86957C13.4466 5.86957 13.4462 5.86953 13.446 5.86953H9.70512C9.7048 5.86953 9.70453 5.86957 9.70426 5.86957C9.68637 5.86957 9.6684 5.86879 9.65023 5.86719C9.64844 5.86703 9.64672 5.8666 9.64492 5.86645C9.63523 5.86551 9.62566 5.86383 9.61602 5.86242C9.60457 5.86078 9.59309 5.85934 9.58187 5.85707C9.57391 5.85543 9.56609 5.85324 9.5582 5.85129C9.54551 5.84824 9.53289 5.84512 9.52059 5.84129C9.51402 5.83922 9.50762 5.83672 9.50113 5.83441C9.48789 5.82981 9.47477 5.82504 9.46203 5.81957C9.45594 5.81699 9.45008 5.81395 9.44406 5.81117C9.43145 5.80523 9.41895 5.79918 9.40684 5.79242C9.40059 5.78895 9.39453 5.78516 9.38848 5.78148C9.37715 5.77469 9.36594 5.7677 9.35512 5.7602C9.34863 5.7557 9.34234 5.75094 9.33602 5.74621C9.32609 5.73871 9.31637 5.73105 9.30695 5.72309C9.30047 5.71754 9.29414 5.71188 9.28785 5.70602C9.27906 5.69793 9.27063 5.68961 9.26238 5.68105C9.25906 5.67754 9.25539 5.67453 9.25215 5.67098C9.24941 5.66797 9.24703 5.66461 9.24434 5.66152C9.23664 5.65266 9.22918 5.64359 9.22191 5.6343C9.21648 5.62734 9.21105 5.62047 9.20594 5.61332C9.19887 5.60348 9.19234 5.59336 9.18594 5.58313C9.18156 5.57617 9.17703 5.56934 9.17297 5.56223C9.16641 5.55078 9.16043 5.53895 9.15461 5.52707C9.15156 5.52082 9.1482 5.51465 9.14535 5.50828C9.13918 5.49457 9.13375 5.48039 9.12859 5.46621C9.12684 5.46137 9.12477 5.45656 9.12309 5.45164C9.11758 5.43523 9.11301 5.41844 9.10887 5.40148C9.10812 5.39848 9.10711 5.39551 9.10645 5.39242C9.10223 5.37383 9.09898 5.35488 9.09656 5.3357C9.09637 5.3341 9.09594 5.3325 9.09574 5.33094C9.09336 5.31156 9.09211 5.29195 9.0916 5.27215C9.0916 5.27066 9.09137 5.26926 9.09137 5.26777C9.09102 5.24672 9.09168 5.22547 9.09359 5.20402L9.36277 2.12691L9.41629 1.51469L9.42098 1.46133V1.46125L9.46984 0.902422H4.41711C4.09969 0.902422 3.83484 1.14508 3.80719 1.46129L3.52867 4.64508H2.23402C1.8959 4.64508 1.6218 4.91922 1.6218 5.25731C1.6218 5.59539 1.89594 5.86953 2.23402 5.86953H3.42148H4.03605H4.65066H5.97672C6.31484 5.86953 6.58895 6.14367 6.58895 6.48176C6.58895 6.81988 6.3148 7.09402 5.97672 7.09402H4.54352H3.92895H3.31437L3.20125 8.38766H0.612227C0.274141 8.38766 0 8.66176 0 8.99988C0 9.33801 0.274141 9.61211 0.612227 9.61211H3.09406H3.70867H4.32324H4.35492C4.69305 9.61211 4.96715 9.88625 4.96715 10.2243C4.96715 10.5625 4.69301 10.8366 4.35492 10.8366H4.21613H3.60152H2.98695L2.87383 12.1302H1.54793C1.2098 12.1302 0.935703 12.4044 0.935703 12.7425C0.935703 13.0806 1.20984 13.3547 1.54793 13.3547H2.76668H3.38125H3.99586H5.29063C5.62875 13.3547 5.90285 13.6289 5.90285 13.967C5.90285 14.305 5.62871 14.5792 5.29063 14.5792H3.88867H3.27406H2.65949L2.49742 16.4318C2.48246 16.6028 2.53996 16.7722 2.65594 16.8988C2.77191 17.0253 2.9357 17.0973 3.10734 17.0973H18.078C18.3955 17.0973 18.6603 16.8547 18.688 16.5384L19.9977 1.56793C20.0127 1.39691 19.9551 1.22746 19.8391 1.10094ZM12.7914 13.3548H9.04883C8.7107 13.3548 8.4366 13.0807 8.4366 12.7426C8.4366 12.4045 8.71074 12.1304 9.04883 12.1304H12.7914C13.1296 12.1304 13.4037 12.4045 13.4037 12.7426C13.4037 13.0807 13.1296 13.3548 12.7914 13.3548Z" fill="white"/>
</svg>
