<svg width="81" height="81" viewBox="0 0 81 81" fill="none" xmlns="http://www.w3.org/2000/svg">
<g clip-path="url(#clip0_134_5165)">
<path d="M71.9982 71.182L48.6739 80.8372L31.9982 73.9406H25.1017V61.5269H55.5704C55.5725 62.9904 54.9919 64.3953 53.9567 65.4304C52.9216 66.4656 51.5174 67.0461 50.0532 67.0441H41.7773L51.4325 72.5613L65.2256 67.4576C66.6177 66.9956 68.1398 67.1343 69.4248 67.8415C70.7105 68.548 71.6426 69.7589 71.9982 71.182Z" fill="#FFD297"/>
<path d="M57.8603 39.3068L63.7224 36.6997V50.4928L51.3086 56.0101V42.2169L57.8603 39.3068Z" fill="#D56A00"/>
<path d="M63.7223 0.837402V7.73395L60.0531 19.9821C59.74 21.0058 59.5817 22.0706 59.5844 23.1407V33.9408C58.6698 33.9395 57.7693 33.7119 56.9638 33.2788C56.4944 33.0215 56.0627 32.7016 55.6808 32.3272C54.6497 31.2893 54.0698 29.8864 54.0672 28.4236V22.9064C54.0672 20.6212 52.2144 18.7684 49.9292 18.7684C47.6441 18.7684 45.7913 20.6212 45.7913 22.9064V33.6371L40.274 36.0927V17.3891L51.3085 6.35464V0.837402H63.7223Z" fill="#FFD297"/>
<path d="M40.274 36.6993L45.7913 34.2445V31.4858L40.274 33.9407V36.6993Z" fill="#F5C687"/>
<path d="M63.7224 36.6994L57.8603 39.3065L45.7914 33.9407V33.637L51.3086 31.1821L56.8124 33.6235L63.7224 36.6994Z" fill="#FFD297"/>
<path d="M40.2741 36.0928L45.7913 33.6372V33.941L57.8603 39.3067L51.3086 42.2168L38.8948 36.6996L40.2741 36.0928Z" fill="#EBBB7D"/>
<path d="M51.3086 42.2169V56.0101L38.8948 50.4928V36.6997L51.3086 42.2169Z" fill="#FFB400"/>
<path d="M40.2741 17.3892V25.665L37.5155 28.4236C36.419 29.5228 34.93 30.141 33.3776 30.141C31.8252 30.141 30.3361 29.5228 29.2396 28.4236L40.2741 17.3892Z" fill="#FFB400"/>
<path d="M37.5155 28.4236L40.2741 25.665V17.3892L37.5155 20.1478V28.4236Z" fill="#E6A200"/>
<path d="M25.1017 61.5272V78.0789H9.92932V58.7686H25.1017V61.5272Z" fill="#3C83F7"/>
</g>
<defs>
<clipPath id="clip0_134_5165">
<rect width="80" height="80" fill="white" transform="translate(0.963745 0.837402)"/>
</clipPath>
</defs>
</svg>
