<svg width="19" height="18" viewBox="0 0 19 18" fill="none" xmlns="http://www.w3.org/2000/svg">
<path d="M7.91163 11.8012L9.38538 9.89437V17.1L3.47913 15.9216V10.5919L7.91163 11.8012ZM9.94788 9.89437V17.1L15.8541 15.9216V10.5919L11.4216 11.8012L9.94788 9.89437ZM3.47913 6.92156L1.51038 9.4725L3.47913 10.0097L7.69788 11.16L9.31225 9.07031L9.38538 8.97469V8.53312L8.76663 8.36438L3.47913 6.92156ZM15.8541 6.92156L10.5666 8.36438L9.94788 8.53312V8.97469L10.021 9.07031L11.6354 11.16L15.8541 10.0097L17.8229 9.4725L15.8541 6.92156ZM14.836 6.615L12.0038 5.76562C11.0869 6.60375 9.97881 7.3125 9.66663 7.3125C9.35444 7.3125 8.24631 6.60375 7.32944 5.76562L4.49725 6.615L9.38538 7.95094L9.66663 8.02688L9.94788 7.95094L14.836 6.615ZM6.57288 3.81938V0.84375H12.7604V3.81938C12.7604 4.2525 12.0882 4.96406 11.371 5.57438C10.6173 6.21562 9.81006 6.75 9.66663 6.75C9.52319 6.75 8.716 6.21562 7.96225 5.57438C7.24506 4.96406 6.57288 4.2525 6.57288 3.81938ZM8.40944 4.185L9.53444 4.7925C9.57504 4.81448 9.62045 4.82607 9.66663 4.82625C9.71363 4.8259 9.75982 4.8139 9.80105 4.79132C9.84227 4.76874 9.87726 4.73629 9.90288 4.69688L11.0279 2.96438C11.068 2.90172 11.0817 2.82569 11.0658 2.75298C11.05 2.68027 11.0059 2.61682 10.9433 2.57658C10.8807 2.53634 10.8047 2.52259 10.7319 2.53834C10.6592 2.5541 10.5957 2.59808 10.5554 2.66062L9.571 4.17375L8.67381 3.69C8.60817 3.65494 8.53129 3.64739 8.46009 3.66902C8.38888 3.69065 8.32918 3.73967 8.29413 3.80531C8.25907 3.87095 8.25152 3.94783 8.27315 4.01904C8.29477 4.09024 8.3438 4.14994 8.40944 4.185Z" fill="#9F9F9F" fill-opacity="0.4"/>
</svg>
