<svg width="20" height="20" viewBox="0 0 20 20" fill="none" xmlns="http://www.w3.org/2000/svg">
<mask id="mask0_205_4393" style="mask-type:luminance" maskUnits="userSpaceOnUse" x="0" y="0" width="20" height="20">
<path d="M0 0H20V20H0V0Z" fill="white"/>
</mask>
<g mask="url(#mask0_205_4393)">
<path d="M11.6667 4.16634C11.6667 6.00726 10.1742 7.49967 8.33333 7.49967C6.49242 7.49967 5 6.00726 5 4.16634C5 2.32542 6.49242 0.833008 8.33333 0.833008C10.1742 0.833008 11.6667 2.32542 11.6667 4.16634Z" fill="white"/>
<path d="M1.87238 14.1828C2.60663 11.2989 5.22088 9.16602 8.33338 9.16602C9.20255 9.16602 10.0329 9.33235 10.7943 9.63493C9.81955 10.2166 9.16671 11.2818 9.16671 12.4993V15.8327H3.33338C2.41288 15.8327 1.64533 15.0749 1.87238 14.1828Z" fill="white"/>
<path fill-rule="evenodd" clip-rule="evenodd" d="M12.5 10C11.1192 10 10 11.1192 10 12.5V17.5C10 18.8807 11.1192 20 12.5 20H17.5C18.8807 20 20 18.8807 20 17.5V12.5C20 11.1192 18.8807 10 17.5 10H12.5ZM12.5 12.5C12.0397 12.5 11.6667 12.8731 11.6667 13.3333C11.6667 13.7936 12.0397 14.1667 12.5 14.1667H17.5C17.9602 14.1667 18.3333 13.7936 18.3333 13.3333C18.3333 12.8731 17.9602 12.5 17.5 12.5H12.5ZM12.5 15.8333C12.0397 15.8333 11.6667 16.2064 11.6667 16.6667C11.6667 17.1269 12.0397 17.5 12.5 17.5H15.8333C16.2936 17.5 16.6667 17.1269 16.6667 16.6667C16.6667 16.2064 16.2936 15.8333 15.8333 15.8333H12.5Z" fill="white"/>
</g>
</svg>
