<svg width="66" height="66" viewBox="0 0 66 66" fill="none" xmlns="http://www.w3.org/2000/svg">
<g clip-path="url(#clip0_134_5391)">
<path d="M23.9364 0.373047H29.1364V2.97305H31.7364V5.57305H23.9364V8.17305H26.5364V10.773H29.1364V8.17305H31.7364V13.373H23.9364V18.573H21.3364V2.97305H23.9364V0.373047Z" fill="black"/>
<path d="M31.7363 0.373047H34.3363V2.97305H31.7363V0.373047Z" fill="black"/>
<path d="M39.5364 0.373047H42.1364V5.57305H39.5364V0.373047Z" fill="black"/>
<path d="M0.536377 0.373047V18.573H18.7364V0.373047H0.536377ZM16.1364 15.973H3.13638V2.97305H16.1364V15.973Z" fill="black"/>
<path d="M34.3364 2.97314H36.9364V5.57314H34.3364V2.97314Z" fill="black"/>
<path d="M47.3364 0.373047V18.573H65.5364V0.373047H47.3364ZM62.9364 15.973H49.9364V2.97305H62.9364V15.973Z" fill="black"/>
<path d="M5.73633 5.57324H13.5363V13.3732H5.73633V5.57324Z" fill="black"/>
<path d="M31.7363 5.57324H34.3363V8.17324H31.7363V5.57324Z" fill="black"/>
<path d="M42.1364 5.57324H44.7374V8.17324H42.1364V5.57324Z" fill="black"/>
<path d="M52.5364 5.57324H60.3364V13.3732H52.5364V5.57324Z" fill="black"/>
<path d="M36.9354 8.17285H39.5364V10.7729H42.1364V15.9729H39.5364V21.1729H36.9354V8.17285Z" fill="black"/>
<path d="M31.7363 13.373H34.3363V21.173H31.7363V13.373Z" fill="black"/>
<path d="M26.5364 15.9731H29.1364V23.7731H21.3364V26.3731H18.7364V23.7731H16.1364V26.3731H18.7364V28.9731H16.1364V31.5731H21.3364V28.9731H23.9364V34.1731H13.5364V31.5731H10.9364V26.3731H13.5364V21.1731H23.9364V18.5731H26.5364V15.9731Z" fill="black"/>
<path d="M42.1364 15.9731H44.7364V21.1731H47.3364V23.7731H49.9364V21.1731H62.9364V23.7731H60.3364V28.9731H57.7364V26.3731H55.1364V23.7731H52.5364V26.3731H49.9364V28.9731H47.3364V26.3731H44.7364V23.7731H42.1364V15.9731Z" fill="black"/>
<path d="M5.73633 21.1729H8.33633V23.7729H10.9363V26.3729H5.73633V21.1729Z" fill="black"/>
<path d="M34.3364 21.1729H36.9354V26.3729H39.5364V31.5729H42.1364V28.9729H47.3364V31.5729H44.7364V34.1729H39.5364V36.7719H42.1364V39.3729H39.5364V41.9729H36.9354V36.7719H26.5364V34.1729H29.1364V31.5729H31.7364V34.1729H36.9354V31.5729H31.7364V26.3729H34.3364V21.1729Z" fill="black"/>
<path d="M0.536377 23.7729H3.13638V26.3729H5.73638V31.573H3.13638V34.1729H0.536377V23.7729Z" fill="black"/>
<path d="M29.1364 23.7729H31.7374V26.3729H29.1364V23.7729Z" fill="black"/>
<path d="M62.9364 23.7729H65.5364V28.9729H62.9364V23.7729Z" fill="black"/>
<path d="M23.9364 26.373H26.5364V28.973H23.9364V26.373Z" fill="black"/>
<path d="M52.5364 26.373H55.1364V28.973H57.7364V34.173H62.9364V31.573H65.5364V39.373H62.9364V36.772H60.3364V39.373H57.7364V36.772H55.1364V31.573H52.5364V26.373Z" fill="black"/>
<path d="M60.3364 28.9731H62.9374V31.5731H60.3364V28.9731Z" fill="black"/>
<path d="M5.73633 31.5732H8.33633V36.7722H5.73633V31.5732Z" fill="black"/>
<path d="M47.3364 31.5732H49.9364V34.1732H52.5364V36.7722H55.1364V39.3732H49.9364V36.7722H47.3364V31.5732Z" fill="black"/>
<path d="M10.9364 34.1729H13.5364V36.7719H18.7364V39.3729H16.1364V41.9729H18.7364V44.5729H10.9364V41.9729H13.5364V39.3729H10.9364V34.1729Z" fill="black"/>
<path d="M0.536377 36.772H5.73638V39.373H0.536377V36.772Z" fill="black"/>
<path d="M23.9364 36.772H26.5364V39.373H23.9364V36.772Z" fill="black"/>
<path d="M8.33643 39.373H10.9364V41.973H8.33643V39.373Z" fill="black"/>
<path d="M21.3364 39.373H23.9374V41.973H21.3364V39.373Z" fill="black"/>
<path d="M26.5364 39.373H34.3364V44.573H31.7364V41.973H26.5364V39.373Z" fill="black"/>
<path d="M55.1364 39.373H57.7374V41.973H55.1364V39.373Z" fill="black"/>
<path d="M60.3363 39.373H62.9363V44.573H65.5363V52.373H62.9363V47.173H60.3363V49.773H57.7363V44.573H60.3363V39.373Z" fill="black"/>
<path d="M0.536377 41.9731H5.73638V44.5741H0.536377V41.9731Z" fill="black"/>
<path d="M21.3364 44.5732H31.7364V47.1732H23.9364V52.3732H21.3364V44.5732Z" fill="black"/>
<path d="M55.1364 57.573V54.973H57.7364V52.373H55.1364V41.973H47.3364V39.373H44.7364V41.973H42.1364V44.573H39.5364V47.173H42.1364V49.773H39.5364V47.173H36.9354V52.373H39.5364V54.973H44.7364V57.573H39.5364V60.173H44.7364V62.773H47.3364V65.373H52.5364V62.773H49.9364V60.173H47.3364V54.973H52.5364V57.573H49.9364V60.173H55.1364V65.373H57.7364V62.773H60.3364V60.173H65.5364V57.573H55.1364ZM52.5364 52.373H44.7364V44.573H52.5364V52.373Z" fill="black"/>
<path d="M47.3364 47.1729H49.9374V49.7739H47.3364V47.1729Z" fill="black"/>
<path d="M0.536377 47.1729V65.3729H18.7364V47.1729H0.536377ZM16.1364 62.7729H3.13638V49.7729H16.1364V62.7729Z" fill="black"/>
<path d="M26.5364 49.7729H29.1364V52.3729H36.9354V54.9729H34.3364V62.7729H31.7364V65.3729H23.9364V62.7729H29.1364V57.5729H31.7364V54.9729H29.1364V57.5729H23.9364V52.3729H26.5364V49.7729Z" fill="black"/>
<path d="M5.73633 52.373H13.5363V60.173H5.73633V52.373Z" fill="black"/>
<path d="M21.3364 57.5732H23.9374V60.1732H21.3364V57.5732Z" fill="black"/>
<path d="M34.3364 62.7729H36.9364V65.3729H34.3364V62.7729Z" fill="black"/>
<path d="M42.1364 62.7729H44.7374V65.3729H42.1364V62.7729Z" fill="black"/>
<path d="M62.9364 62.7729H65.5364V65.3729H62.9364V62.7729Z" fill="black"/>
</g>
<defs>
<clipPath id="clip0_134_5391">
<rect width="65" height="65" fill="white" transform="translate(0.536377 0.373047)"/>
</clipPath>
</defs>
</svg>
