<svg width="24" height="24" viewBox="0 0 24 24" fill="none" xmlns="http://www.w3.org/2000/svg">
<path d="M18.54 4.16965L13.04 2.10965C12.47 1.89965 11.54 1.89965 10.97 2.10965L5.47005 4.16965C4.41005 4.56965 3.55005 5.80965 3.55005 6.93965V15.0396C3.55005 15.8496 4.08005 16.9196 4.73005 17.3996L10.23 21.5096C11.2 22.2396 12.79 22.2396 13.76 21.5096L19.26 17.3996C19.91 16.9096 20.4401 15.8496 20.4401 15.0396V6.93965C20.4501 5.80965 19.59 4.56965 18.54 4.16965ZM12.75 12.8696V15.4996C12.75 15.9096 12.41 16.2496 12 16.2496C11.59 16.2496 11.25 15.9096 11.25 15.4996V12.8696C10.24 12.5496 9.50005 11.6096 9.50005 10.4996C9.50005 9.11965 10.62 7.99965 12 7.99965C13.38 7.99965 14.5 9.11965 14.5 10.4996C14.5 11.6196 13.76 12.5496 12.75 12.8696Z" fill="white"/>
</svg>
