<svg width="18" height="18" viewBox="0 0 18 18" fill="none" xmlns="http://www.w3.org/2000/svg">
<path d="M10.4434 0.390015C9.55021 -0.0766195 8.44979 -0.0766197 7.55662 0.390015L5.30002 1.56898L13.3142 5.93988L17.108 3.95781C16.9434 3.81541 16.7588 3.68951 16.5566 3.58389L10.4434 0.390015Z" fill="white"/>
<path d="M17.9178 5.2271L14.0566 7.24439V10.04C14.0566 10.4543 13.7208 10.79 13.3066 10.79C12.8924 10.79 12.5566 10.4543 12.5566 10.04V8.02807L10.2869 9.21387C9.9569 9.3863 9.75 9.72783 9.75 10.1002V17.9504C9.9896 17.8921 10.2228 17.8053 10.4434 17.6901L16.5566 14.4962C17.4498 14.0296 18 13.1672 18 12.2339V5.84617C18 5.63492 17.9718 5.42731 17.9178 5.2271Z" fill="white"/>
<path d="M8.25 17.9504V10.1002C8.25 9.72783 8.0431 9.3863 7.71306 9.21387L0.0821646 5.2271C0.0281894 5.42731 0 5.63492 0 5.84617V12.2339C0 13.1672 0.550212 14.0296 1.44338 14.4962L7.55662 17.6901C7.77719 17.8053 8.0104 17.8921 8.25 17.9504Z" fill="white"/>
<path d="M0.891991 3.95781L9 8.19385L11.7142 6.77582L4.14089 2.64539C4 2.54004 3.9016 2.46169 3.83519 2.33428L1.44338 3.58389C1.24121 3.68951 1.05661 3.81541 0.891991 3.95781Z" fill="white"/>
</svg>
