<svg width="101" height="101" viewBox="0 0 101 101" fill="none" xmlns="http://www.w3.org/2000/svg">
<path d="M96.9803 50.8205C98.5246 49.0221 99.6069 46.874 100.133 44.5626C100.659 42.2512 100.614 39.8464 100 37.5566C99.3865 35.2669 98.2235 33.1614 96.612 31.4229C95.0005 29.6844 92.9892 28.3653 90.7525 27.5801C91.1907 25.2503 91.0539 22.8488 90.3539 20.5839C89.6538 18.319 88.4117 16.2591 86.7353 14.5829C85.059 12.9067 82.9989 11.6649 80.7339 10.9651C78.4689 10.2654 76.0674 10.1289 73.7376 10.5674C72.953 8.33019 71.6342 6.31829 69.8957 4.70639C68.1571 3.0945 66.0514 1.93132 63.7613 1.31786C61.4712 0.704398 59.066 0.659192 56.7545 1.18617C54.443 1.71314 52.2951 2.79637 50.4972 4.3418C48.6988 2.79743 46.5507 1.71518 44.2393 1.18893C41.9279 0.662688 39.523 0.70834 37.2333 1.32193C34.9435 1.93552 32.8381 3.09851 31.0995 4.71001C29.361 6.32152 28.0419 8.33287 27.2567 10.5696C24.9271 10.1317 22.5259 10.2689 20.2612 10.9691C17.9966 11.6693 15.937 12.9114 14.2611 14.5878C12.5852 16.2641 11.3436 18.324 10.644 20.5888C9.94432 22.8536 9.80781 25.2549 10.2462 27.5844C8.00954 28.3696 5.99818 29.6887 4.38667 31.4272C2.77516 33.1657 1.61216 35.2712 0.998574 37.561C0.384986 39.8507 0.339328 42.2556 0.865574 44.567C1.39182 46.8783 2.47409 49.0264 4.01846 50.8248C2.47362 52.6232 1.39102 54.7715 0.864622 57.0831C0.338226 59.3947 0.383924 61.7999 0.997781 64.0898C1.61164 66.3798 2.77508 68.4853 4.38714 70.2237C5.99921 71.9621 8.01119 73.2808 10.2484 74.0653C9.8096 76.3949 9.94595 78.7963 10.6457 81.0612C11.3454 83.3262 12.5873 85.3861 14.2637 87.0622C15.94 88.7383 18.0001 89.98 20.2651 90.6794C22.5301 91.3788 24.9316 91.5149 27.2611 91.0758C28.0463 93.3125 29.3654 95.3239 31.1039 96.9354C32.8424 98.5469 34.9479 99.7099 37.2376 100.323C39.5274 100.937 41.9322 100.983 44.2436 100.456C46.555 99.9302 48.7031 98.8479 50.5015 97.3036C52.2999 98.8484 54.4481 99.931 56.7598 100.457C59.0714 100.984 61.4765 100.938 63.7665 100.324C66.0564 99.7104 68.162 98.5469 69.9004 96.9349C71.6387 95.3228 72.9574 93.3108 73.742 91.0736C76.0716 91.5123 78.4731 91.3759 80.7381 90.6761C83.003 89.9764 85.063 88.7345 86.7393 87.0583C88.4155 85.382 89.6574 83.322 90.3571 81.0571C91.0569 78.7921 91.1933 76.3906 90.7546 74.061C92.9915 73.2759 95.003 71.9569 96.6146 70.2183C98.2262 68.4797 99.3892 66.3741 100.003 64.0842C100.616 61.7943 100.661 59.3893 100.135 57.0779C99.6079 54.7665 98.5252 52.6186 96.9803 50.8205Z" fill="#6BE72D"/>
<path d="M41.5241 69.9071L27.6297 56.0213C27.1023 55.4931 26.8062 54.7773 26.8062 54.031C26.8062 53.2846 27.1023 52.5688 27.6297 52.0406L29.3177 50.3504C29.8459 49.8231 30.5617 49.5269 31.308 49.5269C32.0544 49.5269 32.7702 49.8231 33.2984 50.3504L43.3985 60.444L67.185 35.1667C67.6968 34.6236 68.4032 34.3058 69.1492 34.283C69.8951 34.2603 70.6195 34.5344 71.1635 35.0453L72.8971 36.6814C73.4408 37.1933 73.759 37.9001 73.7818 38.6466C73.8045 39.393 73.5299 40.118 73.0184 40.662L45.5719 69.8442C45.3135 70.1196 45.0023 70.3403 44.6569 70.493C44.3115 70.6458 43.939 70.7275 43.5613 70.7334C43.1837 70.7393 42.8087 70.6691 42.4588 70.5272C42.1088 70.3852 41.7909 70.1743 41.5241 69.9071Z" fill="white"/>
</svg>
