<svg width="81" height="81" viewBox="0 0 81 81" fill="none" xmlns="http://www.w3.org/2000/svg">
<path d="M68.4637 17.9004H46.8109V29.1504H65.9637C66.4814 29.1504 66.9012 29.5703 66.9012 30.0879C66.9012 30.6055 66.4814 31.0254 65.9637 31.0254H46.8109V36.6504H65.9637C66.4814 36.6504 66.9012 37.0703 66.9012 37.5879C66.9012 38.1055 66.4814 38.5254 65.9637 38.5254H46.5135C46.1025 39.7231 45.2801 40.7625 44.1547 41.4124L39.4122 44.1504H65.9639C66.4815 44.1504 66.9014 44.5703 66.9014 45.0879C66.9014 45.6055 66.4815 46.0254 65.9639 46.0254H36.1646L27.6374 50.9485C26.8335 51.4136 25.915 51.6595 24.9811 51.6595C24.0472 51.6595 23.1287 51.4135 22.3236 50.9479L15.0262 46.7348V56.3379C15.0262 60.9906 18.811 64.7754 23.4637 64.7754H48.8317L55.2704 74.1248C55.6787 74.718 56.3519 75.0714 57.0721 75.0714C57.7924 75.0714 58.4655 74.718 58.8739 74.1248L65.3125 64.7754H68.4637C73.1165 64.7754 76.9012 60.9906 76.9012 56.3379V26.3379C76.9012 21.6851 73.1165 17.9004 68.4637 17.9004ZM65.9637 53.5254H33.4637C32.9461 53.5254 32.5262 53.1055 32.5262 52.5879C32.5262 52.0703 32.9461 51.6504 33.4637 51.6504H65.9637C66.4814 51.6504 66.9012 52.0703 66.9012 52.5879C66.9012 53.1055 66.4814 53.5254 65.9637 53.5254Z" fill="#177430"/>
<path d="M24.0436 28.1296C23.9102 28.0792 23.7735 28.0388 23.6481 27.9663L5.09112 17.2524C5.06737 17.4147 5.02625 17.5729 5.02625 17.7393V36.8122C5.02625 38.0359 5.68487 39.1767 6.745 39.7888L23.2624 49.3249C23.5101 49.4682 23.7741 49.5712 24.0436 49.6474V28.1296Z" fill="#FF0075"/>
<path d="M24.5856 26.3427C24.8297 26.4831 25.1324 26.4831 25.3766 26.3427L44.1003 15.5323C43.8483 15.2344 43.5641 14.9627 43.2172 14.7626L26.6998 5.22581C25.6391 4.61418 24.3231 4.61418 23.2623 5.22581L6.74494 14.7626C6.39794 14.9628 6.11369 15.2344 5.86169 15.5324L24.5856 26.3427Z" fill="#FF0075"/>
<path d="M26.3141 27.9663C26.1887 28.0388 26.052 28.0791 25.9186 28.1296V49.6476C26.1881 49.5713 26.4521 49.4683 26.6998 49.3251L43.2172 39.7889C44.2773 39.1768 44.936 38.0361 44.936 36.8123V17.7394C44.936 17.5729 44.8947 17.4147 44.871 17.2524L26.3141 27.9663Z" fill="#FF0075"/>
</svg>
