<svg width="19" height="18" viewBox="0 0 19 18" fill="none" xmlns="http://www.w3.org/2000/svg">
<g clip-path="url(#clip0_134_5455)">
<path d="M12.111 10.2877C12.111 11.0962 12.7688 11.754 13.5773 11.754H18.3333V8.82129H13.5773C12.7688 8.82132 12.111 9.47912 12.111 10.2877ZM14.3792 10.3307C14.3792 10.6572 14.1146 10.9219 13.7881 10.9219C13.4616 10.9219 13.197 10.6572 13.197 10.3307C13.197 10.0043 13.4616 9.73963 13.7881 9.73963C14.1146 9.73966 14.3792 10.0043 14.3792 10.3307Z" fill="#9F9F9F" fill-opacity="0.4"/>
<path d="M13.5774 12.8895C12.1427 12.8895 10.9755 11.7223 10.9755 10.2876C10.9755 8.8529 12.1427 7.68566 13.5774 7.68566H18.3334V5.70421C18.3334 4.36388 17.2429 3.27344 15.9026 3.27344H2.76415C1.42382 3.27344 0.333374 4.36388 0.333374 5.70421V14.8004C0.333374 16.1407 1.42382 17.2312 2.76415 17.2312H15.9026C17.243 17.2312 18.3334 16.1407 18.3334 14.8004V12.8895H13.5774Z" fill="#9F9F9F" fill-opacity="0.4"/>
<path d="M2.76414 2.13801C17.0456 2.13801 16.022 2.12623 16.3356 2.16434C15.946 1.34051 15.1071 0.769043 14.137 0.769043H2.76414C1.45901 0.769043 0.391275 1.80306 0.33606 3.09481C0.973171 2.50156 1.82692 2.13801 2.76414 2.13801Z" fill="#9F9F9F" fill-opacity="0.4"/>
</g>
<defs>
<clipPath id="clip0_134_5455">
<rect width="18" height="18" fill="white" transform="translate(0.333374)"/>
</clipPath>
</defs>
</svg>
